<svg xmlns="http://www.w3.org/2000/svg" xmlns:xlink="http://www.w3.org/1999/xlink" width="315" height="250" viewBox="0 0 315 250">
    <defs>
        <path id="prefix__a" d="M0.048 0.04L118.873 0.04 118.873 215.977 0.048 215.977z"/>
        <path id="prefix__c" d="M0 250L315 250 315 0 0 0z"/>
    </defs>
    <g fill="none" fill-rule="evenodd">
        <path fill="#F3FAFC" d="M293.319 107.196c6.737-34.072-6.739-60.312-41.042-75.37-25.122-11.028-50.045-14.129-76.942-6.986-15.787 4.192-30.475 8.527-47.116 8.282-14.295-.21-28.858-6.211-42.91-5.576-32.335 1.461-38.088 33.54-46.962 55.572C33.151 96.02 27 107.023 27 121.056c0 22.162 21.087 37.722 27.087 59.144 9.389 33.518 32.31 49.77 69.85 53.405 27.793 2.691 52.532-9.203 79.895-10.291 19.293-.768 40.928 8.215 59.304 2.104 16.984-5.649 29.01-22.411 31.332-38.602 1.982-13.818-4.358-26.503-5.895-40.064-1.606-14.175 2.043-25.89 4.746-39.556"/>
        <path fill="#ACD480" d="M91.487 101.002c-3.345 2.03-7.282 3.209-11.487 3.209h-.004c-4.205 0-8.134-1.178-11.492-3.209-3.843-2.338-6.929-5.806-8.762-9.956-.825-1.848-1.409-3.82-1.694-5.891-.152-1.022-.223-2.066-.223-3.124 0-.322.013-.625.027-.929.116-2.905.785-5.667 1.926-8.17.526-1.175 1.15-2.304 1.877-3.361 2.618-3.856 6.426-6.842 10.898-8.444 2.328-.835 4.834-1.28 7.443-1.28H80c2.609 0 5.123.445 7.447 1.28 8.302 2.963 14.318 10.746 14.692 19.975.014.304.027.607.027.929 0 8.037-4.276 15.08-10.68 18.971m30.492-20.36c-.718-21.934-18.568-39.848-40.475-40.615-.504-.018-1.008-.027-1.507-.027-13.2.004-24.99 6.105-32.681 15.638-1.396 1.718-2.653 3.552-3.76 5.489-1.515 2.646-2.76 5.467-3.673 8.444-.344 1.102-.647 2.218-.883 3.36-.589 2.633-.928 5.373-.986 8.171-.013.304-.013.62-.013.929 0 1.044.036 2.088.12 3.124.139 1.999.433 3.976.856 5.89.763 3.504 1.962 6.842 3.546 9.957.4.812.833 1.598 1.306 2.374.102.188.21.375.325.563.518.848 1.048 1.695 1.566 2.54 2.314 3.748 4.628 7.488 6.835 11.294l5.472 9.488 1.797 3.129 16.445 28.49.82 1.437c.647 1.125 1.78 1.683 2.908 1.683s2.26-.558 2.907-1.683l.504-.87 21.81-37.818 1.88-3.253c.152-.272.317-.54.469-.812 1.752-3.022 3.5-6.03 5.333-8.993.727-1.187 1.467-2.352 2.23-3.512 1.444-2.214 2.693-4.561 3.714-7.033C120.872 93.103 122 87.694 122 82.03c0-.46-.009-.929-.022-1.388"/>
        <path fill="#8AC249" d="M120.978 80.643c-.718-21.935-18.566-39.849-40.471-40.616C80.003 40.009 79.499 40 79 40v19.846h.004c2.609 0 5.123.446 7.446 1.281 8.302 2.963 14.317 10.746 14.691 19.975.014.304.027.607.027.929 0 8.037-4.276 15.08-10.678 18.971-3.344 2.03-7.281 3.209-11.486 3.209H79V162c1.128 0 2.26-.558 2.907-1.683l.504-.87 21.807-37.818 1.881-3.253c.152-.272.317-.54.468-.812 1.753-3.022 3.5-6.03 5.333-8.993.727-1.187 1.467-2.352 2.23-3.512 1.444-2.214 2.692-4.561 3.713-7.033C119.872 93.103 121 87.694 121 82.03c0-.46-.009-.929-.022-1.388"/>
        <g transform="translate(128)">
            <mask id="prefix__b" fill="#fff">
                <use xlink:href="#prefix__a"/>
            </mask>
            <path fill="#404141" d="M100.567.04H18.354C8.244.04.048 8.284.048 18.453v179.111c0 10.17 8.196 18.413 18.306 18.413h82.213c10.11 0 18.306-8.244 18.306-18.413V18.453c0-10.169-8.196-18.413-18.306-18.413" mask="url(#prefix__b)"/>
        </g>
        <path fill="#B5E1EA" d="M226.063 9h-77.126C142.349 9 137 14.375 137 21.003v173.994c0 6.628 5.35 12.003 11.937 12.003h77.126c6.596 0 11.937-5.375 11.937-12.003V21.003C238 14.375 232.659 9 226.063 9"/>
        <path fill="#404141" d="M203.145 17h-27.29c-1.024 0-1.855.66-1.855 1.473v.054c0 .814.83 1.473 1.855 1.473h27.29c1.025 0 1.855-.66 1.855-1.473v-.054c0-.814-.83-1.473-1.855-1.473M167.5 17c-.828 0-1.5.672-1.5 1.5s.672 1.5 1.5 1.5c.829 0 1.5-.672 1.5-1.5s-.671-1.5-1.5-1.5"/>
        <path fill="#FFF" d="M219.603 75h-65.205c-2.981 0-5.398 2.417-5.398 5.397v65.206c0 2.98 2.417 5.397 5.398 5.397h65.205c2.98 0 5.397-2.417 5.397-5.397V80.397c0-2.98-2.417-5.397-5.397-5.397"/>
        <path fill="#B7B7B7" d="M158.084 105l-.698.695c-.514.513-.515 1.346-.001 1.86l6.063 6.06c.513.513 1.344.513 1.856 0l.696-.696-7.916-7.919z"/>
        <path fill="#EA8C41" d="M218.581 106.423L205.71 93.922c-1.927-1.87-4.539-2.922-7.262-2.922h-4.761c-.622 2.536-2.974 4.43-5.779 4.43-2.804 0-5.156-1.894-5.778-4.43h-4.761c-2.725 0-5.339 1.052-7.265 2.925L158 105.69l8.622 8.377 4.724-4.59c.625-.607 1.692-.15 1.652.708L171.818 135H204l-1.18-24.813c-.041-.858 1.026-1.316 1.65-.708l5.484 5.327c.558.542 1.463.542 2.021 0l6.606-6.418c.559-.543.559-1.422 0-1.965"/>
        <path fill="#B7B7B7" d="M193.374 89c-.632 2.988-3.023 5.22-5.874 5.22-2.851 0-5.241-2.232-5.874-5.22H180c.665 3.982 3.766 7 7.5 7s6.835-3.018 7.5-7h-1.626zM217.614 105.695l-.698-.695-7.916 7.92.696.695c.512.513 1.343.513 1.856 0l6.063-6.06c.514-.514.513-1.347-.001-1.86"/>
        <mask id="prefix__d" fill="#fff">
            <use xlink:href="#prefix__c"/>
        </mask>
        <path fill="#FFF" d="M151 161L178 161 178 158 151 158zM149 168L162 168 162 165 149 165zM194 168L226 168 226 158 194 158z" mask="url(#prefix__d)"/>
        <path fill="#E8EAEA" d="M250.842 165.072l-49.638-41.331c-2.104-1.752-5.277-.194-5.203 2.554l1.75 64.846c.08 2.91 3.662 4.213 5.568 2.024l9.415-11.383c1.498-1.72 4.252-1.349 5.247.708l14.38 29.71c.769 1.59 2.672 2.25 4.25 1.475l7.919-3.888c1.578-.775 2.233-2.691 1.464-4.28l-14.38-29.711c-.995-2.057.41-4.471 2.679-4.6l14.702-.46c2.887-.164 4.075-3.808 1.847-5.664M185.062 198h-75.124c-3.281 0-5.938 2.659-5.938 5.94v40.12c0 3.281 2.657 5.94 5.938 5.94h75.124c3.281 0 5.938-2.659 5.938-5.94v-40.12c0-3.281-2.657-5.94-5.938-5.94" mask="url(#prefix__d)"/>
        <path fill="#262626" d="M104 243L191 243 191 232 104 232z" mask="url(#prefix__d)"/>
        <path fill="#D25062" d="M180.25 209.004c-1.103-.639-2.384-1.004-3.75-1.004-4.143 0-7.5 3.358-7.5 7.5 0 4.142 3.357 7.5 7.5 7.5 1.366 0 2.647-.365 3.75-1.004 2.242-1.296 3.75-3.72 3.75-6.497 0-2.775-1.508-5.199-3.75-6.495" mask="url(#prefix__d)"/>
        <path fill="#404141" d="M114 234L119 234 119 52 114 52zM256 234L261 234 261 52 256 52z" mask="url(#prefix__d)"/>
        <path fill="#404141" d="M113 247L121 247 121 229 113 229zM254 247L262 247 262 229 254 229z" mask="url(#prefix__d)"/>
        <path fill="#AA8D5F" d="M264.993 132.979L260.012 134.388 253 136.374 253 179 272 179 272 131z" mask="url(#prefix__d)"/>
        <path fill="#E9DE9F" d="M259 133.325L259 141 264 140.061 264 132z" mask="url(#prefix__d)"/>
        <path fill="#D2AF7A" d="M271 131L271 179 306 179 306 134.877z" mask="url(#prefix__d)"/>
        <path fill="#444" d="M296 176L305 176 305 173 296 173zM296 173L305 173 305 172 296 172z" mask="url(#prefix__d)"/>
        <path fill="#AA8D5F" d="M260.678 158.694L258.319 157.99 255 157 255 181 264 181 264 159.687z" mask="url(#prefix__d)"/>
        <path fill="#E9DE9F" d="M258 158L258 162.478 260 163 260 158.736z" mask="url(#prefix__d)"/>
        <path fill="#D2AF7A" d="M238 158.938L238 181 254 181 254 157z" mask="url(#prefix__d)"/>
        <path fill="#444" d="M239 178L242 178 242 177 239 177zM239 176L242 176 242 175 239 175z" mask="url(#prefix__d)"/>
        <path fill="#D25062" d="M240.381 238.001c-3.59.06-6.446 2.796-6.38 6.109.066 3.313 3.029 5.95 6.618 5.889 3.59-.06 6.445-2.796 6.38-6.109-.066-3.313-3.029-5.95-6.618-5.889M299.38 237.001c-3.588.06-6.445 2.796-6.379 6.109.066 3.313 3.029 5.95 6.618 5.889 3.59-.06 6.446-2.796 6.38-6.109-.066-3.313-3.029-5.95-6.618-5.889M306.02 172.774l-70.127-5.708c-1.865-.151-3.377-1.581-3.643-3.444l-1.304-9.157c-.205-1.434-1.44-2.491-2.88-2.465l-4.297.08-27.483.506c-1.848.034-3.32 1.568-3.285 3.426.034 1.859 1.56 3.337 3.407 3.304l25.82-.476c1.438-.026 2.671 1.027 2.88 2.458l9.812 67.6v.012c.004.27.046.53.114.78l.088.602.136-.022c.525 1.044 1.607 1.752 2.848 1.73l64.37-1.186c1.728-.031 3.103-1.466 3.072-3.204-.032-1.738-1.459-3.121-3.187-3.09l-57.737 1.064c-2.02.037-3.752-1.445-4.039-3.457-.341-2.398 1.484-4.555 3.893-4.6l56.848-1.046c4.692-.086 8.66-3.516 9.448-8.168l4.085-24.102c.963-5.682-3.125-10.972-8.839-11.437" mask="url(#prefix__d)"/>
        <path fill="#BBB" d="M76.5 156c-5.238 0-9.5 4.776-9.5 10.646V180h1.113v-13.354c0-5.183 3.762-9.399 8.387-9.399s8.387 4.216 8.387 9.399V180H86v-13.354c0-5.87-4.262-10.646-9.5-10.646" mask="url(#prefix__d)"/>
        <path fill="#B73950" d="M104.91 173L104.096 173.4 103 173 103 250 108.371 242.935 112 244.683z" mask="url(#prefix__d)"/>
        <path fill="#D25062" d="M104.721 173L104 173.396 107.786 242.268 111 244zM50.743 173L46 250 102 250 102 173z" mask="url(#prefix__d)"/>
        <path fill="#B73950" d="M65.5 178c-.828 0-1.5.672-1.5 1.5s.672 1.5 1.5 1.5 1.5-.672 1.5-1.5-.672-1.5-1.5-1.5M84.5 178c-.828 0-1.5.672-1.5 1.5s.672 1.5 1.5 1.5 1.5-.672 1.5-1.5-.672-1.5-1.5-1.5" mask="url(#prefix__d)"/>
        <path fill="#DDDDDC" d="M75.5 156c-5.238 0-9.5 4.655-9.5 10.376v13.016c0 .336.25.608.556.608.308 0 .557-.272.557-.608v-13.016c0-5.05 3.762-9.16 8.387-9.16s8.387 4.11 8.387 9.16v13.016c0 .336.25.608.557.608.307 0 .556-.272.556-.608v-13.016C85 160.655 80.738 156 75.5 156" mask="url(#prefix__d)"/>
        <path fill="#BF4258" d="M104 54c0 4.97 5.373 9 11.999 9C122.627 63 128 58.97 128 54h-24z" mask="url(#prefix__d)"/>
        <path fill="#88A3C3" d="M128 54c0 4.97 5.371 9 12 9 6.627 0 12-4.03 12-9h-24z" mask="url(#prefix__d)"/>
        <path fill="#BF4258" d="M153 54c0 4.97 5.373 9 12 9s12-4.03 12-9h-24z" mask="url(#prefix__d)"/>
        <path fill="#D25062" d="M127.684 27L105 54 128.417 54 148 27z" mask="url(#prefix__d)"/>
        <path fill="#A5BEE3" d="M147.417 27L128 54 151.217 54 165 27z" mask="url(#prefix__d)"/>
        <path fill="#D25062" d="M167.142 27L153 54 176.82 54 184 27z" mask="url(#prefix__d)"/>
        <path fill="#BF4258" d="M246 54c0 4.97 5.373 9 12.001 9C264.627 63 270 58.97 270 54h-24z" mask="url(#prefix__d)"/>
        <path fill="#88A3C3" d="M222 54c0 4.97 5.373 9 12 9 6.629 0 12-4.03 12-9h-24z" mask="url(#prefix__d)"/>
        <path fill="#BF4258" d="M199 54c0 4.97 5.373 9 12 9s12-4.03 12-9h-24z" mask="url(#prefix__d)"/>
        <path fill="#88A3C3" d="M176 54c0 4.97 5.373 9 12 9s12-4.03 12-9h-24z" mask="url(#prefix__d)"/>
        <path fill="#D25062" d="M247.316 27L227 27 246.583 54 270 54z" mask="url(#prefix__d)"/>
        <path fill="#A5BEE3" d="M226.583 27L209 27 222.783 54 246 54z" mask="url(#prefix__d)"/>
        <path fill="#D25062" d="M208.858 27L192 27 199.18 54 223 54z" mask="url(#prefix__d)"/>
        <path fill="#A5BEE3" d="M192.764 27L183.236 27 176 54 200 54z" mask="url(#prefix__d)"/>
        <path fill="#BBB" d="M35 206c-2.757 0-5 2.388-5 5.323V218h.586v-6.677c0-2.591 1.98-4.7 4.414-4.7 2.434 0 4.414 2.109 4.414 4.7V218H40v-6.677c0-2.935-2.243-5.323-5-5.323" mask="url(#prefix__d)"/>
        <path fill="#88A3C3" d="M4.391 215.215L3.939 215 0 247.141 2.016 246.201 5 250 5 215z" mask="url(#prefix__d)"/>
        <path fill="#A5BEE3" d="M2.691 215L0 248 1.377 247.035 3 215.221zM64.456 215L5 215 5 250 67 250z" mask="url(#prefix__d)"/>
        <path fill="#B73950" d="M40.5 217c-.276 0-.5.224-.5.5s.224.5.5.5.5-.224.5-.5-.224-.5-.5-.5M30.5 217c-.276 0-.5.224-.5.5s.224.5.5.5.5-.224.5-.5-.224-.5-.5-.5" mask="url(#prefix__d)"/>
        <path fill="#DDDDDC" d="M36 206c-2.757 0-5 2.327-5 5.188v6.508c0 .168.131.304.293.304.162 0 .293-.136.293-.304v-6.508c0-2.525 1.98-4.58 4.414-4.58 2.434 0 4.414 2.055 4.414 4.58v6.508c0 .168.131.304.293.304.162 0 .293-.136.293-.304v-6.508c0-2.86-2.243-5.188-5-5.188" mask="url(#prefix__d)"/>
        <path fill="#D25062" d="M162 119c-9.941 0-18 8.059-18 18s8.059 18 18 18 18-8.059 18-18-8.059-18-18-18" mask="url(#prefix__d)"/>
        <path fill="#FFF" d="M165.027 124.227l-10.078 23.53h3.243l10.077-23.53h-3.242zm1.992 20.019c0 .27-.056.477-.168.623-.111.145-.268.218-.472.218-.204 0-.361-.07-.472-.21-.112-.14-.168-.35-.168-.631v-2.816c0-.27.056-.475.168-.615.11-.14.268-.21.472-.21.204 0 .361.07.472.21.112.14.168.34.168.598v2.833zm2.043-5.568c-.625-.658-1.52-.987-2.683-.987-1.154 0-2.043.33-2.668.987-.626.659-.939 1.586-.939 2.784v2.768c0 1.197.313 2.125.939 2.783.625.658 1.514.987 2.668.987 1.154 0 2.045-.326 2.676-.979.63-.653.945-1.583.945-2.791v-2.736c0-1.219-.313-2.157-.938-2.816zm-13.095-8.123v-2.816c0-.27.055-.475.167-.615.111-.14.269-.21.473-.21.203 0 .36.07.472.21.111.14.167.34.167.598v2.833c0 .27-.056.477-.167.623-.111.145-.269.218-.472.218-.204 0-.362-.07-.473-.21-.112-.14-.167-.35-.167-.631zm3.315 2.775c.63-.653.946-1.583.946-2.792v-2.735c0-1.219-.313-2.157-.938-2.816-.626-.657-1.52-.987-2.683-.987-1.154 0-2.044.33-2.669.987-.625.659-.938 1.586-.938 2.784v2.767c0 1.198.313 2.126.938 2.784.625.658 1.515.987 2.669.987 1.153 0 2.045-.326 2.675-.98z" mask="url(#prefix__d)"/>
    </g>
</svg>
