<svg xmlns="http://www.w3.org/2000/svg" width="387" height="253" viewBox="0 0 387 253">
    <defs>
        <linearGradient id="prefix__a" x1="72.889%" x2="25.326%" y1="38.218%" y2="52.205%">
            <stop offset="0%" stop-color="#00E6E9"/>
            <stop offset="100%" stop-color="#6AFFF4"/>
        </linearGradient>
        <linearGradient id="prefix__b" x1="101.192%" x2="1.498%" y1="41.857%" y2="53.643%">
            <stop offset="0%" stop-color="#6AFFF4"/>
            <stop offset="100%" stop-color="#00E6E9"/>
        </linearGradient>
        <linearGradient id="prefix__c" x1=".001%" x2="100%" y1="50%" y2="50%">
            <stop offset="0%" stop-color="#F0A"/>
            <stop offset="100%" stop-color="#FFBFD4"/>
        </linearGradient>
        <linearGradient id="prefix__d" x1=".001%" x2="100.001%" y1="50%" y2="50%">
            <stop offset="0%" stop-color="#F0A"/>
            <stop offset="100%" stop-color="#FFBFD4"/>
        </linearGradient>
        <linearGradient id="prefix__e" x1=".001%" x2="100%" y1="50.001%" y2="50.001%">
            <stop offset="0%" stop-color="#FFBFD4"/>
            <stop offset="21.76%" stop-color="#FF9ACC"/>
            <stop offset="69.92%" stop-color="#FF3DB7"/>
            <stop offset="100%" stop-color="#F0A"/>
        </linearGradient>
        <linearGradient id="prefix__f" x1="0%" x2="100%" y1="50.001%" y2="50.001%">
            <stop offset="0%" stop-color="#FFBFD4"/>
            <stop offset="11.14%" stop-color="#FFB9D3"/>
            <stop offset="26.19%" stop-color="#FFA8CF"/>
            <stop offset="43.47%" stop-color="#FF8BC9"/>
            <stop offset="62.41%" stop-color="#FF64C0"/>
            <stop offset="82.45%" stop-color="#FF32B5"/>
            <stop offset="100%" stop-color="#F0A"/>
        </linearGradient>
        <linearGradient id="prefix__g" x1="0%" x2="100%" y1="50%" y2="50%">
            <stop offset=".37%" stop-color="#D4E9FF"/>
            <stop offset="100%" stop-color="#E9F1FF"/>
        </linearGradient>
        <linearGradient id="prefix__h" x1="0%" x2="100%" y1="50%" y2="50%">
            <stop offset="0%" stop-color="#E9FFF8"/>
            <stop offset="100%" stop-color="#D4FFF0"/>
        </linearGradient>
        <linearGradient id="prefix__i" x1="-.001%" x2="100.001%" y1="50.001%" y2="50.001%">
            <stop offset="0%" stop-color="#E9FFF8"/>
            <stop offset="100%" stop-color="#D4FFF0"/>
        </linearGradient>
        <linearGradient id="prefix__j" x1="0%" x2="100%" y1="50%" y2="50%">
            <stop offset=".37%" stop-color="#D4E9FF"/>
            <stop offset="100%" stop-color="#E9F1FF"/>
        </linearGradient>
        <linearGradient id="prefix__k" x1="0%" x2="100%" y1="49.999%" y2="49.999%">
            <stop offset=".12%" stop-color="#3F00D4"/>
            <stop offset="10.33%" stop-color="#4507D9"/>
            <stop offset="100%" stop-color="#733FFF"/>
        </linearGradient>
        <linearGradient id="prefix__l" x1="0%" x2="100%" y1="50%" y2="50%">
            <stop offset="1.56%" stop-color="#6F00FF"/>
            <stop offset="60.56%" stop-color="#945BFF"/>
            <stop offset="100%" stop-color="#AB94FF"/>
        </linearGradient>
        <linearGradient id="prefix__m" x1="0%" x2="99.999%" y1="50%" y2="50%">
            <stop offset="1.56%" stop-color="#6F00FF"/>
            <stop offset="46.73%" stop-color="#6300CC"/>
            <stop offset="100%" stop-color="#550094"/>
        </linearGradient>
        <linearGradient id="prefix__n" x1=".001%" x2="100.001%" y1="50.001%" y2="50.001%">
            <stop offset="0%" stop-color="#8D2AFF"/>
            <stop offset="98.44%" stop-color="#6F00FF"/>
        </linearGradient>
        <linearGradient id="prefix__o" x1=".001%" x2="99.999%" y1="50.001%" y2="50.001%">
            <stop offset="0%" stop-color="#8D2AFF"/>
            <stop offset="98.44%" stop-color="#6F00FF"/>
        </linearGradient>
        <linearGradient id="prefix__p" x1="0%" x2="100%" y1="50%" y2="50%">
            <stop offset="0%" stop-color="#FFBFD4"/>
            <stop offset="21.76%" stop-color="#FF9ACC"/>
            <stop offset="69.92%" stop-color="#FF3DB7"/>
            <stop offset="100%" stop-color="#F0A"/>
        </linearGradient>
        <linearGradient id="prefix__q" x1=".001%" x2="100%" y1="50%" y2="50%">
            <stop offset="0%" stop-color="#F0A"/>
            <stop offset="30.08%" stop-color="#FF3DB7"/>
            <stop offset="78.24%" stop-color="#FF9ACC"/>
            <stop offset="100%" stop-color="#FFBFD4"/>
        </linearGradient>
        <linearGradient id="prefix__r" x1="-.002%" x2="100%" y1="50%" y2="50%">
            <stop offset="0%" stop-color="#FFBFD4"/>
            <stop offset="21.76%" stop-color="#FF9ACC"/>
            <stop offset="69.92%" stop-color="#FF3DB7"/>
            <stop offset="100%" stop-color="#F0A"/>
        </linearGradient>
        <linearGradient id="prefix__s" x1="-.002%" x2="100%" y1="49.998%" y2="49.998%">
            <stop offset="0%" stop-color="#F0A"/>
            <stop offset="30.08%" stop-color="#FF3DB7"/>
            <stop offset="78.24%" stop-color="#FF9ACC"/>
            <stop offset="100%" stop-color="#FFBFD4"/>
        </linearGradient>
        <linearGradient id="prefix__t" x1="0%" x2="100%" y1="49.978%" y2="49.978%">
            <stop offset="0%" stop-color="#C0BFFF"/>
            <stop offset="100%" stop-color="#E9EAFF"/>
        </linearGradient>
        <linearGradient id="prefix__u" x1="0%" x2="100%" y1="50.009%" y2="50.009%">
            <stop offset="0%" stop-color="#C0BFFF"/>
            <stop offset="100%" stop-color="#E9EAFF"/>
        </linearGradient>
        <linearGradient id="prefix__v" x1="0%" x2="100%" y1="49.987%" y2="49.987%">
            <stop offset="0%" stop-color="#C0BFFF"/>
            <stop offset="100%" stop-color="#E9EAFF"/>
        </linearGradient>
        <linearGradient id="prefix__w" x1="0%" x2="100%" y1="50.022%" y2="50.022%">
            <stop offset="0%" stop-color="#C0BFFF"/>
            <stop offset="100%" stop-color="#E9EAFF"/>
        </linearGradient>
        <linearGradient id="prefix__x" x1="0%" x2="100%" y1="49.996%" y2="49.996%">
            <stop offset="0%" stop-color="#C0BFFF"/>
            <stop offset="100%" stop-color="#E9EAFF"/>
        </linearGradient>
        <linearGradient id="prefix__y" x1="0%" x2="99.999%" y1="50%" y2="50%">
            <stop offset="0%" stop-color="#6AFFF4"/>
            <stop offset="100%" stop-color="#00E6E9"/>
        </linearGradient>
        <linearGradient id="prefix__z" x1="0%" x2="99.999%" y1="50.001%" y2="50.001%">
            <stop offset="0%" stop-color="#7B2AFF"/>
            <stop offset="100%" stop-color="#1B00D4"/>
        </linearGradient>
        <linearGradient id="prefix__A" x1="0%" x2="100%" y1="50.004%" y2="50.004%">
            <stop offset="0%" stop-color="#C0BFFF"/>
            <stop offset="100%" stop-color="#E9EAFF"/>
        </linearGradient>
        <linearGradient id="prefix__B" x1="0%" x2="100%" y1="49.987%" y2="49.987%">
            <stop offset="0%" stop-color="#C0BFFF"/>
            <stop offset="100%" stop-color="#E9EAFF"/>
        </linearGradient>
        <linearGradient id="prefix__C" x1="0%" x2="100%" y1="50.009%" y2="50.009%">
            <stop offset="0%" stop-color="#C0BFFF"/>
            <stop offset="100%" stop-color="#E9EAFF"/>
        </linearGradient>
        <linearGradient id="prefix__D" x1="0%" x2="100%" y1="49.996%" y2="49.996%">
            <stop offset="0%" stop-color="#C0BFFF"/>
            <stop offset="100%" stop-color="#E9EAFF"/>
        </linearGradient>
        <linearGradient id="prefix__E" x1="0%" x2="100.001%" y1="49.998%" y2="49.998%">
            <stop offset="0%" stop-color="#FFBFD4"/>
            <stop offset="21.76%" stop-color="#FF9ACC"/>
            <stop offset="69.92%" stop-color="#FF3DB7"/>
            <stop offset="100%" stop-color="#F0A"/>
        </linearGradient>
        <linearGradient id="prefix__F" x1="0%" x2="99.999%" y1="49.999%" y2="49.999%">
            <stop offset=".12%" stop-color="#5415FF"/>
            <stop offset="10.33%" stop-color="#5B13FF"/>
            <stop offset="100%" stop-color="#9300FF"/>
        </linearGradient>
        <linearGradient id="prefix__G" x1=".001%" x2="100.001%" y1="50%" y2="50%">
            <stop offset="0%" stop-color="#C0BFFF"/>
            <stop offset="100%" stop-color="#E9EAFF"/>
        </linearGradient>
        <linearGradient id="prefix__H" x1="0%" x2="100.001%" y1="50%" y2="50%">
            <stop offset="0%" stop-color="#C0BFFF"/>
            <stop offset="100%" stop-color="#E9EAFF"/>
        </linearGradient>
        <linearGradient id="prefix__I" x1="0%" x2="100%" y1="50.001%" y2="50.001%">
            <stop offset="0%" stop-color="#C0BFFF"/>
            <stop offset="100%" stop-color="#E9EAFF"/>
        </linearGradient>
        <linearGradient id="prefix__J" x1="0%" x2="100%" y1="50%" y2="50%">
            <stop offset="1.56%" stop-color="#6F00FF"/>
            <stop offset="46.73%" stop-color="#6300CC"/>
            <stop offset="100%" stop-color="#550094"/>
        </linearGradient>
        <linearGradient id="prefix__K" x1=".001%" x2="100.001%" y1="50.001%" y2="50.001%">
            <stop offset="1.56%" stop-color="#6F00FF"/>
            <stop offset="60.56%" stop-color="#945BFF"/>
            <stop offset="100%" stop-color="#AB94FF"/>
        </linearGradient>
        <linearGradient id="prefix__L" x1="0%" x2="100%" y1="50.002%" y2="50.002%">
            <stop offset="0%" stop-color="#1517FF"/>
            <stop offset="100%" stop-color="#6A7CFF"/>
        </linearGradient>
        <linearGradient id="prefix__M" x1="0%" x2="100%" y1="50%" y2="50%">
            <stop offset="0%" stop-color="#1517FF"/>
            <stop offset="100%" stop-color="#5560FF"/>
        </linearGradient>
        <linearGradient id="prefix__N" x1="50.176%" x2="49.498%" y1="63.018%" y2="-7.139%">
            <stop offset="0%" stop-color="#E9EAFF"/>
            <stop offset="39.44%" stop-color="#B0B1FF"/>
            <stop offset="98.44%" stop-color="#5556FF"/>
        </linearGradient>
        <linearGradient id="prefix__O" x1="0%" x2="100%" y1="50%" y2="50%">
            <stop offset="0%" stop-color="#E9EAFF"/>
            <stop offset="100%" stop-color="#C0BFFF"/>
        </linearGradient>
        <linearGradient id="prefix__P" x1="0%" x2="100.003%" y1="50%" y2="50%">
            <stop offset="1.69%" stop-color="#4F00AA"/>
            <stop offset="13.05%" stop-color="#4D00A2"/>
            <stop offset="100%" stop-color="#3D006A"/>
        </linearGradient>
        <linearGradient id="prefix__Q" x1=".002%" x2="99.999%" y1="50%" y2="50%">
            <stop offset="0%" stop-color="#FFBFEB"/>
            <stop offset="100%" stop-color="#FFF"/>
        </linearGradient>
        <linearGradient id="prefix__R" x1=".001%" x2="100.001%" y1="50%" y2="50%">
            <stop offset="0%" stop-color="#FFBFD4"/>
            <stop offset="21.76%" stop-color="#FF9ACC"/>
            <stop offset="69.92%" stop-color="#FF3DB7"/>
            <stop offset="100%" stop-color="#F0A"/>
        </linearGradient>
        <linearGradient id="prefix__S" x1="0%" x2="100%" y1="49.998%" y2="49.998%">
            <stop offset="1.56%" stop-color="#5556FF"/>
            <stop offset="60.56%" stop-color="#B0B1FF"/>
            <stop offset="100%" stop-color="#E9EAFF"/>
        </linearGradient>
        <linearGradient id="prefix__T" x1="-.001%" x2="99.999%" y1="49.999%" y2="49.999%">
            <stop offset="0%" stop-color="#1517FF"/>
            <stop offset="100%" stop-color="#6A7CFF"/>
        </linearGradient>
        <linearGradient id="prefix__U" x1="0%" x2="100%" y1="50%" y2="50%">
            <stop offset="0%" stop-color="#C0BFFF"/>
            <stop offset="100%" stop-color="#E9EAFF"/>
        </linearGradient>
        <linearGradient id="prefix__V" x1="0%" x2="100%" y1="50%" y2="50%">
            <stop offset=".12%" stop-color="#5415FF"/>
            <stop offset="10.33%" stop-color="#5B13FF"/>
            <stop offset="100%" stop-color="#9300FF"/>
        </linearGradient>
        <linearGradient id="prefix__W" x1=".592%" x2="99.408%" y1="56.156%" y2="43.852%">
            <stop offset="0%" stop-color="#FFBFD4"/>
            <stop offset="8.5%" stop-color="#FF94CB"/>
            <stop offset="17.79%" stop-color="#FF6DC2"/>
            <stop offset="27.74%" stop-color="#FF4BBB"/>
            <stop offset="38.31%" stop-color="#FF30B4"/>
            <stop offset="49.72%" stop-color="#FF1AB0"/>
            <stop offset="62.39%" stop-color="#FF0BAD"/>
            <stop offset="77.29%" stop-color="#FF03AB"/>
            <stop offset="100%" stop-color="#F0A"/>
        </linearGradient>
        <linearGradient id="prefix__X" x1="0%" x2="100%" y1="49.999%" y2="49.999%">
            <stop offset="0%" stop-color="#FFBFD4"/>
            <stop offset="21.76%" stop-color="#FF9ACC"/>
            <stop offset="69.92%" stop-color="#FF3DB7"/>
            <stop offset="100%" stop-color="#F0A"/>
        </linearGradient>
        <linearGradient id="prefix__Y" x1="0%" x2="99.999%" y1="50%" y2="50%">
            <stop offset="0%" stop-color="#FFBFD4"/>
            <stop offset="21.76%" stop-color="#FF9ACC"/>
            <stop offset="69.92%" stop-color="#FF3DB7"/>
            <stop offset="100%" stop-color="#F0A"/>
        </linearGradient>
        <linearGradient id="prefix__Z" x1="-.001%" x2="99.999%" y1="50%" y2="50%">
            <stop offset="0%" stop-color="#FFBFEB"/>
            <stop offset="100%" stop-color="#FFF"/>
        </linearGradient>
        <linearGradient id="prefix__aa" x1="0%" x2="100%" y1="50%" y2="50%">
            <stop offset="0%" stop-color="#FFBFEB"/>
            <stop offset="100%" stop-color="#FFF"/>
        </linearGradient>
        <linearGradient id="prefix__ab" x1="0%" x2="100%" y1="50%" y2="50%">
            <stop offset="0%" stop-color="#FFBFD4"/>
            <stop offset="21.76%" stop-color="#FF9ACC"/>
            <stop offset="69.92%" stop-color="#FF3DB7"/>
            <stop offset="100%" stop-color="#F0A"/>
        </linearGradient>
        <linearGradient id="prefix__ac" x1="0%" x2="100%" y1="50%" y2="50%">
            <stop offset="0%" stop-color="#1517FF"/>
            <stop offset="100%" stop-color="#5560FF"/>
        </linearGradient>
        <linearGradient id="prefix__ad" x1=".001%" x2="99.999%" y1="49.999%" y2="49.999%">
            <stop offset="0%" stop-color="#FFBFEB"/>
            <stop offset="100%" stop-color="#FFF"/>
        </linearGradient>
        <linearGradient id="prefix__ae" x1="0%" x2="100%" y1="49.999%" y2="49.999%">
            <stop offset="0%" stop-color="#1517FF"/>
            <stop offset="100%" stop-color="#6A7CFF"/>
        </linearGradient>
        <linearGradient id="prefix__af" x1=".001%" x2="100%" y1="49.999%" y2="49.999%">
            <stop offset="0%" stop-color="#FFBFEB"/>
            <stop offset="100%" stop-color="#FFF"/>
        </linearGradient>
        <linearGradient id="prefix__ag" x1=".001%" x2="100.001%" y1="50%" y2="50%">
            <stop offset="0%" stop-color="#94F7FF"/>
            <stop offset="100%" stop-color="#BFFEFF"/>
        </linearGradient>
        <linearGradient id="prefix__ah" x1=".004%" x2="99.999%" y1="50.001%" y2="50.001%">
            <stop offset="0%" stop-color="#6AFFF4"/>
            <stop offset="100%" stop-color="#00E6E9"/>
        </linearGradient>
        <linearGradient id="prefix__ai" x1="0%" x2="99.999%" y1="50%" y2="50%">
            <stop offset="0%" stop-color="#1517FF"/>
            <stop offset="100%" stop-color="#6A7CFF"/>
        </linearGradient>
        <linearGradient id="prefix__aj" x1="0%" x2="100%" y1="50%" y2="50%">
            <stop offset="0%" stop-color="#FFBFEB"/>
            <stop offset="100%" stop-color="#FFF"/>
        </linearGradient>
        <linearGradient id="prefix__ak" x1="0%" x2="100%" y1="50.001%" y2="50.001%">
            <stop offset="0%" stop-color="#FFBFEB"/>
            <stop offset="100%" stop-color="#FFF"/>
        </linearGradient>
        <linearGradient id="prefix__al" x1="-.001%" x2="100%" y1="50%" y2="50%">
            <stop offset="0%" stop-color="#18003F"/>
            <stop offset="100%" stop-color="#0800BF"/>
        </linearGradient>
        <linearGradient id="prefix__am" x1=".014%" x2="99.994%" y1="49.992%" y2="49.992%">
            <stop offset="0%" stop-color="#009492"/>
            <stop offset="100%" stop-color="#006A62"/>
        </linearGradient>
    </defs>
    <g fill="none">
        <path fill="url(#prefix__a)" d="M380 78.805s2.001 1.35 1.972 4.197c-.03 2.847-1.957 5.998-1.957 5.998s3.837-1.648 5.745-4.83c1.473-2.456 1.224-5.15 1.224-5.15L381.05 78l-1.049.805z"/>
        <path fill="url(#prefix__b)" d="M320.02 88.452L331.4 114l4.934-3.93s3.105-10.076 9.372-18.42c-1.473-1.55-4.686-3.702-4.686-3.702s2.542-.54 4.665-.408c2.122.124 2.932.644 2.932.644 2.601-2.753 5.624-5.054 9.06-6.345 2.552-.956 5.128-1.692 7.636-2.25-.369-1.622-2.636-4.667-2.636-4.667s1.548.073 3.84.919c2.145.791 4.64 2.71 4.64 2.71 8.771-1.174 15.614-.473 15.843-.449-.46-.39-17.611-14.589-42.914-8.654-25.65 6.015-24.067 19.004-24.067 19.004z"/>
        <path fill="url(#prefix__c)" d="M17.405 91.62s-1.918 1.756-1.437 4.648C16.448 99.16 19 102 19 102s-4.348-.947-6.882-3.822C10.16 95.958 10 93.17 10 93.17L16.16 91l1.245.62z"/>
        <path fill="url(#prefix__d)" d="M10.732 106.64s-3.269 3.693 0 9.027L14 121s-9.345-4.333-11.954-7.778c-2.608-3.444-1.98-5.313-1.98-5.313L8.676 104l2.056 2.64z"/>
        <path fill="url(#prefix__e)" d="M74 112.326V128l-22.484-.82s-3.623-7.402-10.316-13.357c.445-1.26 1.743-2.793 1.743-2.793s-1.283.066-3.336.785c-.203.07-.396.147-.573.225-3.77-2.868-8.343-5.112-13.637-5.514-.943-.074-1.867-.132-2.765-.182.158-1.334 1.271-3.238 1.271-3.238s-1.253.294-3.15 1.366c-1.091.615-1.736 1.288-2.076 1.725C7.011 105.937 0 107.477 0 107.477S17.172 90.67 38.524 93.275C59.877 95.874 74 112.326 74 112.326z"/>
        <path fill="#FFD2EB" d="M62.81 120c-.06 0-.118-.026-.155-.077-.118-.158-11.902-15.848-22.34-19.056-10.452-3.212-24.939-.268-25.084-.238-.105.021-.205-.043-.227-.142-.022-.1.044-.198.147-.22.146-.03 14.732-2.993 25.28.248 10.559 3.244 22.415 19.033 22.533 19.192.062.083.042.199-.043.258-.034.024-.073.035-.112.035z"/>
        <path fill="url(#prefix__f)" d="M78 91.446L70.808 118l-5.515-2.973s-4.686-9.212-12.226-16.225c1.212-1.742 4.05-4.353 4.05-4.353s-2.604-.099-4.685.381c-2.082.473-2.802 1.11-2.802 1.11-3.016-2.227-6.378-3.946-9.989-4.62-2.68-.5-5.348-.782-7.922-.904.106-1.627 1.866-4.943 1.866-4.943s-1.521.327-3.656 1.524c-2 1.121-4.164 3.389-4.164 3.389-8.876.324-15.542 2.138-15.765 2.199.394-.454 15.114-17.01 41.125-15.486C77.493 78.643 78 91.446 78 91.446z"/>
        <path fill="#FFD2EB" d="M75.809 115c-.098 0-.18-.073-.19-.17-.002-.019-.205-1.985-1.778-5.332-1.453-3.09-4.403-8.023-10.212-13.972C53.119 84.76 42.163 83.007 34.823 83.43c-7.952.46-13.483 3.497-13.538 3.528-.092.05-.208.019-.26-.07-.052-.09-.02-.204.071-.255.056-.03 5.665-3.111 13.705-3.576 7.419-.428 18.493 1.342 29.104 12.21 5.857 6 8.831 10.98 10.295 14.101 1.593 3.397 1.791 5.346 1.8 5.428.009.103-.068.193-.173.203l-.018.001z"/>
        <path fill="url(#prefix__g)" d="M71.469 35.885c7.536-2.717 15.476-4.392 23.392-5.228 4.995-.528 10.023-.731 15.043-.633 23.736.462 47.543 8.963 65.15 25.28 9.61 8.905 17.049 20.005 22.035 32.154 14.479 35.275-1.265 82.136-71.355 91.7-42.057 5.738-90.402-19.025-88.69-38.492 1.168-13.284 19.373-19.541 28.488-26.215 3.878-2.839 8.943-6.944 8.697-12.327-.253-5.534-5.895-10.145-10.163-12.793-4.52-2.804-9.774-4.504-14.07-7.65-4-2.932-7.378-6.915-9.109-11.632-2.812-7.667.366-14.398 6.031-19.62 7.122-6.567 15.549-11.299 24.55-14.544z"/>
        <path fill="url(#prefix__h)" d="M320.193 102c-.036 0-.072-.01-.105-.031-.09-.06-.115-.18-.057-.27.107-.166 10.884-16.753 24.183-24.723 13.335-7.993 26.519-3.968 26.65-3.926.102.032.159.141.127.244-.032.103-.14.16-.242.128-.13-.041-13.156-4.012-26.337 3.889-13.22 7.924-23.95 24.435-24.056 24.6-.037.058-.1.089-.163.089z"/>
        <path fill="url(#prefix__i)" d="M331.187 106c-.056 0-.111-.025-.148-.074-.063-.082-.048-.2.034-.264 11.951-9.26 24.308-11.444 32.57-11.646 8.957-.216 15.166 1.782 15.228 1.802.098.033.152.14.12.238-.032.1-.138.154-.236.121-.061-.02-6.222-2.003-15.12-1.783-8.201.202-20.469 2.374-32.334 11.567-.034.026-.074.039-.114.039z"/>
        <path fill="url(#prefix__j)" d="M299.526 26.182c-12.512-.678-25.454.515-37.27 3.925-21.193 6.115-38.457 22.342-44.263 43.97-6.267 23.343 2.875 49.968 18.655 67.611 14.776 16.521 35.835 25.989 57.579 28.52 20.04 2.331 46.417-.141 63.576-11.998 8.054-5.565 13.885-16.354 11.754-26.23-3.681-17.059-22.677-21.576-35.644-29.033-5.202-2.991-12.335-8.487-12.272-15.13.062-6.68 7.158-11.62 12.185-14.737 9.057-5.612 10.633-5.07 14.566-7.689 14.256-9.492 2.483-21.989-8.884-28.454-9.135-5.196-19.353-8.33-29.724-9.77-3.365-.466-6.795-.797-10.258-.985z"/>
        <path fill="url(#prefix__k)" d="M238.504 64h-41.008C194.46 64 192 61.537 192 58.5s2.46-5.5 5.496-5.5h41.008c3.035 0 5.496 2.463 5.496 5.5s-2.46 5.5-5.496 5.5z"/>
        <path fill="url(#prefix__l)" d="M228.75 13L247 39 218 36.941 227.812 26.892z"/>
        <path fill="url(#prefix__m)" d="M247 39L226 28.665 227.56 27.118 227.707 25z"/>
        <path fill="url(#prefix__n)" d="M228 23L219 23.871 223.737 29 227.759 25.789z"/>
        <path fill="url(#prefix__o)" d="M219 25L228 26.869 223.868 30z"/>
        <path fill="url(#prefix__p)" d="M50 134L21 148.034 32.231 151.128 37.239 164z"/>
        <path fill="url(#prefix__q)" d="M50 134L29 150.833 31.639 151.554 32.599 154z"/>
        <path fill="url(#prefix__r)" d="M27 150L27.102 157 32 154.792 30.677 151.1z"/>
        <path fill="url(#prefix__s)" d="M30.649 151L27 157 32 154.755z"/>
        <ellipse cx="64.98" cy="62.138" fill="#5955FF" rx="9.852" ry="9.819" transform="rotate(-76.714 64.98 62.138)"/>
        <ellipse cx="331.16" cy="52.498" fill="#5955FF" rx="9.852" ry="9.819" transform="rotate(-76.714 331.16 52.498)"/>
        <path fill="#6363F7" d="M118.186 61H80.814C79.812 61 79 60.105 79 59c0-1.104.812-2 1.814-2h37.372c1.002 0 1.814.895 1.814 2s-.812 2-1.814 2zM118.909 67H80.09C79.49 67 79 66.552 79 66s.489-1 1.091-1h38.818c.602 0 1.091.448 1.091 1s-.489 1-1.091 1zM315.955 51h-38.91c-.577 0-1.045-.516-1.045-1.152v-1.696c0-.636.468-1.152 1.045-1.152h38.91c.577 0 1.045.516 1.045 1.152v1.696c0 .636-.468 1.152-1.045 1.152zM316.372 57h-39.744c-.347 0-.628-.258-.628-.576v-.848c0-.318.281-.576.628-.576h39.744c.347 0 .628.258.628.576v.848c0 .318-.281.576-.628.576z"/>
        <path fill="url(#prefix__t)" d="M229 77H315V78H229z"/>
        <path fill="url(#prefix__u)" d="M229 92H315V93H229z"/>
        <path fill="url(#prefix__v)" d="M229 107H315V108H229z"/>
        <path fill="url(#prefix__w)" d="M252 122H349V123H252z"/>
        <path fill="url(#prefix__x)" d="M252 138H349V139H252z"/>
        <path fill="url(#prefix__y)" d="M68.135 179h-13.27c-2.134 0-3.865-1.73-3.865-3.865v-13.27c0-2.134 1.73-3.865 3.865-3.865h13.27c2.134 0 3.865 1.73 3.865 3.865v13.27c0 2.134-1.73 3.865-3.865 3.865z"/>
        <path fill="#DCF8F9" d="M61.352 174l-5.242-5.475c-.147-.155-.147-.404.001-.557.148-.153.387-.153.535.001l4.63 4.836 7.045-9.65c.126-.173.364-.206.53-.075.166.132.198.379.072.552L61.353 174z"/>
        <path fill="url(#prefix__z)" d="M377.135 149h-13.27c-2.134 0-3.865-1.73-3.865-3.865v-13.27c0-2.134 1.73-3.865 3.865-3.865h13.27c2.134 0 3.865 1.73 3.865 3.865v13.27c0 2.135-1.73 3.865-3.865 3.865z"/>
        <path fill="#DBDBFC" d="M371.352 144l-5.242-5.475c-.147-.154-.147-.403.001-.556.148-.154.387-.154.535 0l4.63 4.836 7.045-9.65c.126-.172.363-.207.53-.075.166.132.198.379.072.552L371.353 144z"/>
        <path fill="url(#prefix__A)" d="M88 84H182V85H88z"/>
        <path fill="url(#prefix__B)" d="M88 99H182V100H88z"/>
        <path fill="url(#prefix__C)" d="M88 116H182V117H88z"/>
        <path fill="url(#prefix__D)" d="M63 130H182V131H63zM63 146H182V147H63z"/>
        <path fill="url(#prefix__E)" d="M207.504 106h-41.008c-3.036 0-5.496-2.463-5.496-5.5 0-3.038 2.46-5.5 5.496-5.5h41.008c3.035 0 5.496 2.463 5.496 5.5s-2.46 5.5-5.496 5.5z"/>
        <g fill="#BF9BF9">
            <path d="M6.83 157.739c-.027 0-.054-.006-.08-.017-.095-.044-.137-.158-.094-.254.257-.565.406-.87.406-.87.047-.094.162-.133.255-.087.095.047.133.162.087.256-.001.002-.15.303-.401.86-.032.07-.102.112-.174.112zM29.409 209.945c-.508 0-1.008-.007-1.5-.018-.104-.003-.188-.091-.185-.196.003-.106.09-.184.195-.187.503.012 1.014.015 1.537.018l.359-.001c.111-.01.19.084.191.19 0 .106-.084.192-.189.192l-.361.001h-.047zm2.309-.038c-.102 0-.187-.082-.19-.185-.004-.105.079-.194.184-.197.62-.02 1.252-.049 1.895-.085.099-.01.195.074.2.18.007.105-.073.196-.178.202-.647.037-1.282.065-1.905.086h-.006zm-5.703-.058h-.011c-.646-.037-1.287-.085-1.903-.143-.104-.01-.181-.103-.171-.209.01-.105.104-.18.207-.172.612.057 1.247.105 1.888.142.106.006.185.096.18.202-.006.101-.09.18-.19.18zm9.5-.158c-.097 0-.18-.076-.189-.176-.008-.105.07-.197.175-.206.62-.05 1.25-.106 1.89-.171.106-.012.198.066.209.17.01.106-.066.2-.17.21-.644.066-1.277.123-1.9.172l-.014.001zm-13.284-.2l-.026-.001c-.637-.086-1.271-.186-1.886-.297-.103-.018-.172-.118-.154-.222.019-.104.119-.171.222-.154.608.11 1.237.208 1.869.293.104.014.177.11.163.216-.013.096-.095.166-.188.166zm17.07-.182c-.095 0-.177-.071-.189-.169-.013-.105.062-.2.167-.212.618-.075 1.246-.157 1.883-.245.103-.013.2.06.214.164.015.104-.058.201-.162.216-.64.088-1.27.17-1.89.245H39.3zm-20.81-.496c-.014 0-.028-.002-.042-.005-.628-.147-1.25-.31-1.849-.485-.1-.03-.159-.136-.13-.238.03-.101.137-.158.236-.13.592.173 1.207.335 1.828.48.103.024.167.127.143.23-.02.088-.099.148-.185.148zm24.579-.026c-.093 0-.174-.068-.188-.163-.016-.104.055-.202.159-.218.616-.096 1.241-.198 1.874-.306.103-.019.202.052.22.156.018.104-.052.203-.156.221-.635.109-1.262.211-1.88.307l-.03.003zm3.75-.643c-.09 0-.17-.064-.187-.156-.02-.104.049-.204.152-.223.615-.114 1.236-.235 1.866-.36.103-.022.203.045.224.15.02.103-.046.204-.15.225-.63.126-1.254.247-1.87.361l-.035.003zm-31.973-.405c-.021 0-.043-.003-.065-.01-.61-.223-1.207-.463-1.776-.716-.095-.042-.14-.155-.097-.252.043-.097.155-.14.251-.097.56.249 1.15.486 1.752.704.098.036.15.146.114.245-.028.078-.101.126-.179.126zm35.704-.342c-.088 0-.167-.061-.186-.151-.022-.104.044-.205.147-.227.611-.13 1.23-.266 1.856-.408.103-.021.204.042.227.145.023.104-.041.206-.144.23-.627.14-1.247.276-1.86.408l-.04.003zm3.712-.838c-.087 0-.164-.06-.185-.147-.024-.103.039-.206.141-.23.61-.146 1.225-.295 1.847-.45.102-.024.205.037.23.14.026.103-.036.207-.139.232-.623.155-1.24.305-1.85.45-.015.004-.03.005-.044.005zm-42.887-.366c-.03 0-.061-.007-.09-.023-.568-.307-1.122-.636-1.648-.98-.088-.058-.113-.176-.056-.265.057-.089.175-.114.264-.056.517.338 1.062.663 1.62.964.093.05.128.166.078.26-.034.063-.1.1-.168.1zm46.58-.553c-.085 0-.162-.058-.184-.144-.027-.102.034-.207.136-.233.308-.08.617-.16.928-.243.303-.08.606-.162.91-.244.102-.026.205.033.233.135.027.102-.033.208-.134.235-.304.082-.608.164-.912.244-.312.082-.621.164-.93.244-.015.004-.031.006-.047.006zm3.672-1c-.083 0-.16-.054-.183-.138-.029-.102.03-.208.131-.237.608-.174 1.216-.352 1.824-.534.1-.032.206.026.236.128.03.101-.027.208-.128.238-.608.183-1.218.362-1.828.536-.017.005-.035.008-.052.008zm-53.429-.533c-.041 0-.082-.013-.118-.04-.504-.401-.99-.826-1.446-1.265-.077-.074-.079-.195-.006-.271.072-.076.193-.079.269-.006.447.431.924.848 1.419 1.24.082.066.096.187.032.27-.038.047-.094.072-.15.072zm57.074-.56c-.08 0-.156-.052-.181-.134-.032-.1.024-.208.125-.24.604-.19 1.207-.383 1.81-.58.1-.033.207.022.24.122.032.1-.023.209-.123.242-.604.197-1.209.391-1.814.582-.019.006-.038.008-.057.008zm3.617-1.185c-.08 0-.153-.05-.18-.13-.034-.1.02-.209.119-.243.6-.204 1.197-.412 1.795-.624.1-.035.208.017.243.117s-.017.209-.116.244c-.6.212-1.2.42-1.8.626-.02.007-.04.01-.061.01zm-63.428-.894c-.054 0-.107-.023-.145-.067-.413-.486-.808-.999-1.173-1.525-.06-.087-.04-.206.047-.267.086-.06.205-.039.265.047.358.517.745 1.02 1.15 1.496.069.08.06.2-.02.27-.037.031-.08.046-.124.046zm67.015-.379c-.077 0-.15-.048-.178-.126-.037-.099.014-.208.113-.245.594-.219 1.187-.441 1.78-.668.098-.036.208.013.245.112.038.099-.012.209-.11.247-.594.226-1.189.45-1.784.669-.022.007-.044.011-.066.011zm3.557-1.357c-.076 0-.147-.046-.177-.122-.038-.098.01-.209.108-.248.589-.232 1.177-.468 1.765-.707.097-.041.208.007.248.105.04.098-.008.21-.105.249-.589.24-1.179.477-1.769.71-.023.009-.046.013-.07.013zM3.29 198.34c-.067 0-.131-.035-.166-.098-.31-.552-.6-1.132-.862-1.722-.043-.096 0-.21.096-.252.096-.045.209 0 .252.096.258.58.542 1.148.846 1.69.051.092.018.21-.073.26-.03.018-.062.026-.093.026zm76.27-.045c-.074 0-.145-.045-.176-.118-.04-.097.005-.21.103-.25.583-.246 1.166-.495 1.749-.747.096-.043.209.003.25.1.042.097-.003.21-.1.251-.583.253-1.167.503-1.752.749-.025.01-.05.015-.074.015zm3.494-1.515c-.073 0-.143-.042-.174-.113-.043-.097 0-.21.097-.253.578-.258 1.156-.52 1.733-.784.095-.043.208-.001.252.095.043.096.001.21-.094.253-.579.265-1.158.527-1.737.786-.025.01-.052.016-.077.016zm3.461-1.588c-.072 0-.14-.04-.173-.11-.044-.096-.003-.21.092-.255.573-.27 1.145-.543 1.717-.819.095-.047.208-.006.254.09.045.095.006.21-.089.255-.573.277-1.146.551-1.72.821-.027.013-.054.018-.081.018zm-84.78-.335c-.079 0-.153-.05-.18-.128-.207-.595-.395-1.216-.56-1.844-.026-.102.034-.207.136-.234.102-.028.206.034.233.136.161.619.347 1.23.55 1.815.034.1-.018.21-.117.244-.02.008-.042.011-.063.011zm88.209-1.322c-.07 0-.138-.04-.171-.107-.047-.095-.008-.21.086-.256.568-.282 1.134-.566 1.7-.854.094-.048.209-.01.256.085.048.094.01.21-.084.257-.567.288-1.135.573-1.703.855-.027.013-.056.02-.084.02zm3.396-1.725c-.069 0-.135-.038-.17-.104-.047-.094-.01-.21.082-.258.563-.292 1.124-.588 1.685-.886.093-.049.208-.013.257.08.049.093.014.21-.08.259-.561.298-1.124.594-1.687.887-.028.015-.058.022-.087.022zm-92.578-.65c-.09 0-.17-.063-.187-.155-.116-.62-.214-1.26-.293-1.904-.013-.105.06-.2.165-.214.105-.016.199.062.212.167.078.636.176 1.269.29 1.88.02.104-.048.204-.152.223-.011.002-.023.003-.035.003zm95.941-1.14c-.067 0-.133-.036-.168-.1-.05-.093-.015-.209.077-.26.557-.302 1.113-.607 1.668-.916.092-.051.208-.017.259.075.05.092.017.209-.075.26-.556.31-1.113.615-1.67.918-.03.016-.06.023-.09.023zm3.33-1.85c-.066 0-.13-.034-.165-.096-.052-.093-.02-.21.072-.261.552-.313 1.102-.629 1.652-.946.09-.053.207-.022.26.07.052.092.02.209-.071.262-.55.318-1.102.634-1.654.947-.03.017-.062.025-.093.025zm-99.74-.807c-.1 0-.183-.078-.19-.18-.04-.624-.065-1.27-.073-1.922-.002-.106.082-.193.188-.194H.22c.104 0 .19.084.19.189.009.644.034 1.285.074 1.903.007.105-.073.196-.178.204H.293zm103.038-1.1c-.065 0-.129-.034-.164-.095-.053-.092-.023-.209.068-.262.546-.323 1.091-.648 1.636-.975.09-.055.206-.025.26.066.055.091.025.209-.065.263-.545.328-1.092.653-1.639.976-.03.018-.063.026-.096.026zm3.266-1.965c-.065 0-.127-.032-.163-.092-.055-.09-.027-.208.063-.262.541-.332 1.08-.666 1.62-1.002.09-.055.206-.028.262.062.055.09.028.208-.062.264-.54.337-1.08.67-1.622 1.003-.03.018-.065.027-.098.027zM.24 183.536H.234c-.105-.004-.188-.092-.184-.198.02-.626.055-1.271.104-1.918.008-.105.099-.184.204-.176.105.008.184.1.176.205-.048.641-.083 1.281-.104 1.902-.003.103-.088.185-.19.185zm109.59-1.255c-.063 0-.125-.031-.161-.089-.056-.09-.03-.207.06-.264.535-.34 1.07-.682 1.602-1.027.089-.057.207-.031.264.058.056.089.03.208-.057.264-.535.346-1.07.688-1.606 1.03-.032.019-.067.028-.102.028zm3.201-2.067c-.062 0-.122-.03-.159-.087-.057-.088-.033-.207.055-.265.53-.348 1.06-.698 1.588-1.05.088-.06.206-.036.264.053.058.088.034.206-.053.265-.53.353-1.06.704-1.59 1.053-.033.021-.069.031-.105.031zM.524 179.721l-.022-.001c-.104-.012-.18-.107-.167-.213.07-.621.154-1.262.25-1.903.015-.105.111-.177.216-.16.104.015.175.112.16.217-.095.637-.179 1.273-.248 1.89-.011.097-.093.17-.189.17zm115.678-1.624c-.062 0-.122-.029-.158-.084-.06-.087-.036-.206.051-.266.525-.356 1.049-.714 1.572-1.074.087-.06.206-.038.265.05.06.087.037.206-.05.265-.523.361-1.049.72-1.574 1.077-.033.022-.07.032-.106.032zM1.084 175.936l-.034-.003c-.103-.02-.172-.12-.153-.223.111-.616.236-1.25.37-1.883.022-.103.124-.167.226-.147.103.022.168.123.147.227-.134.63-.258 1.26-.369 1.872-.016.092-.096.157-.187.157zm118.257-.001c-.06 0-.12-.029-.157-.082-.06-.087-.039-.206.048-.267.52-.363 1.038-.729 1.556-1.097.087-.061.205-.04.265.046.061.087.04.206-.045.267-.52.368-1.039.735-1.56 1.098-.032.024-.07.035-.107.035zm3.108-2.207c-.059 0-.118-.027-.155-.08-.061-.085-.041-.205.044-.267.515-.37 1.03-.744 1.542-1.118.085-.063.204-.043.266.042.062.085.043.205-.042.267-.514.376-1.029.749-1.544 1.12-.034.025-.073.036-.11.036zM1.876 172.193c-.015 0-.03-.002-.045-.005-.102-.025-.165-.129-.14-.231.151-.631.309-1.251.472-1.86.027-.101.132-.161.233-.134.101.028.162.133.135.234-.162.606-.32 1.223-.47 1.85-.021.087-.1.146-.185.146zm123.652-.714c-.059 0-.116-.027-.153-.078-.063-.085-.045-.205.04-.267.51-.378 1.019-.758 1.526-1.14.085-.063.204-.046.267.04.063.084.046.204-.039.267-.508.382-1.018.763-1.529 1.14-.034.026-.073.038-.112.038zm3.048-2.29c-.058 0-.114-.026-.152-.076-.063-.084-.047-.204.037-.268.505-.384 1.009-.77 1.512-1.158.084-.065.204-.049.267.035.064.084.048.204-.035.268-.504.389-1.008.776-1.514 1.16-.035.027-.075.04-.115.04zm-125.712-.692c-.018 0-.036-.003-.054-.008-.101-.03-.159-.136-.129-.238.184-.628.373-1.24.562-1.833.032-.101.14-.155.239-.124.1.032.155.14.123.24-.188.591-.375 1.2-.559 1.826-.024.083-.1.137-.182.137zm128.731-1.637c-.057 0-.113-.025-.15-.074-.065-.083-.05-.203.033-.268.498-.39.996-.78 1.492-1.173.083-.065.202-.05.267.032.065.084.05.204-.032.27-.497.392-.995.783-1.494 1.173-.034.027-.075.04-.116.04zm-127.57-2.009c-.02 0-.041-.003-.062-.01-.1-.035-.152-.144-.118-.244.217-.63.432-1.234.643-1.806.036-.099.146-.15.244-.113.099.037.15.147.112.246-.209.57-.423 1.17-.639 1.798-.027.08-.101.13-.18.13zm130.549-.347c-.056 0-.112-.024-.15-.072-.065-.082-.051-.203.031-.268.494-.396.987-.793 1.479-1.192.082-.067.201-.054.267.029.066.082.053.203-.029.269-.492.4-.985.797-1.48 1.193-.035.028-.077.041-.118.041zm2.952-2.393c-.055 0-.11-.024-.148-.07-.066-.082-.054-.203.027-.27.49-.401.978-.804 1.466-1.209.081-.067.2-.055.268.026.067.081.055.202-.026.27-.488.404-.977.808-1.467 1.21-.035.029-.078.043-.12.043zm-132.18-.85c-.023 0-.047-.004-.07-.013-.097-.039-.145-.15-.107-.248.259-.656.502-1.251.722-1.776.041-.098.152-.144.25-.102.097.04.142.153.1.25-.219.523-.46 1.115-.718 1.769-.03.074-.1.12-.177.12zm135.107-1.579c-.055 0-.11-.023-.147-.069-.067-.08-.056-.201.024-.269.486-.407.97-.816 1.453-1.226.08-.068.201-.058.269.023.067.08.057.201-.023.269-.484.41-.97.82-1.455 1.228-.035.03-.078.044-.121.044zm2.9-2.463c-.053 0-.106-.022-.144-.067-.068-.08-.059-.201.021-.27.481-.413.961-.827 1.44-1.243.08-.07.2-.06.27.02.068.08.06.2-.02.27-.48.416-.96.832-1.442 1.245-.037.03-.08.045-.124.045zm2.877-2.496c-.053 0-.106-.022-.143-.066-.07-.08-.061-.2.018-.27.477-.419.953-.839 1.428-1.26.08-.07.2-.062.269.017.07.08.062.2-.017.27-.476.422-.952.842-1.43 1.262-.036.03-.08.047-.125.047zm2.853-2.528c-.053 0-.105-.022-.143-.064-.07-.08-.062-.2.016-.27.473-.424.945-.849 1.417-1.276.077-.071.198-.064.268.014.07.08.065.2-.014.27-.471.428-.944.854-1.417 1.277-.037.033-.082.049-.127.049zm2.828-2.56c-.051 0-.103-.021-.14-.063-.071-.078-.066-.2.012-.27.47-.429.938-.86 1.405-1.29.077-.071.198-.067.269.011.071.078.066.2-.011.27-.468.433-.937.863-1.407 1.293-.036.032-.082.049-.128.049zm2.805-2.59c-.051 0-.102-.02-.14-.061-.072-.077-.067-.199.01-.27.466-.435.93-.869 1.394-1.306.077-.072.197-.068.269.01.072.076.067.198-.009.27-.464.436-.929.872-1.395 1.306-.036.034-.083.051-.13.051zm2.782-2.618c-.05 0-.1-.02-.138-.06-.072-.077-.069-.198.007-.27.462-.44.923-.88 1.382-1.32.076-.073.196-.07.269.006.073.076.07.197-.006.27-.46.443-.921.883-1.383 1.322-.037.035-.084.052-.13.052zm2.76-2.647c-.05 0-.1-.02-.138-.06-.073-.075-.07-.196.006-.27.458-.443.914-.888 1.37-1.333.075-.074.196-.072.27.004.073.076.07.197-.005.27-.456.447-.913.891-1.372 1.335-.036.036-.084.054-.131.054zm2.737-2.675c-.05 0-.099-.018-.136-.057-.073-.076-.072-.197.003-.27.454-.449.908-.897 1.36-1.348.074-.075.195-.073.27.002.073.075.073.196-.002.27-.453.451-.906.9-1.361 1.349-.038.036-.086.054-.134.054zm2.716-2.7c-.05 0-.098-.018-.135-.056-.074-.074-.074-.196 0-.27.45-.453.901-.906 1.35-1.36.073-.075.194-.075.269 0 .074.074.075.195 0 .27-.449.454-.899.908-1.35 1.36-.037.037-.086.056-.134.056zm2.688-2.72c-.048 0-.096-.019-.134-.055-.074-.075-.075-.196-.002-.271.446-.455.89-.91 1.332-1.365.074-.076.195-.076.27-.003.075.074.076.195.003.27-.443.456-.888.912-1.333 1.366-.038.039-.087.058-.136.058zm2.66-2.737c-.048 0-.096-.018-.133-.054-.075-.074-.077-.195-.004-.27.441-.459.882-.918 1.32-1.378.073-.075.194-.079.27-.005.075.074.077.194.005.271-.44.46-.88.92-1.322 1.377-.037.04-.087.059-.137.059zm2.636-2.76c-.047 0-.094-.017-.131-.052-.076-.073-.08-.194-.006-.27.437-.463.874-.925 1.309-1.388.072-.077.193-.08.269-.007.076.072.08.193.007.27-.435.464-.872.926-1.31 1.389-.038.039-.088.059-.138.059zm2.615-2.78c-.046 0-.093-.017-.13-.051-.077-.073-.08-.194-.009-.271l1.3-1.397c.07-.077.192-.081.268-.01.077.072.081.193.01.27-.432.467-.866.933-1.3 1.399-.037.04-.088.06-.139.06zm2.593-2.8c-.046 0-.092-.017-.129-.051-.077-.072-.082-.193-.01-.27.43-.469.859-.938 1.287-1.408.071-.078.191-.083.27-.011.077.071.082.192.011.27-.429.47-.858.94-1.29 1.409-.037.04-.088.06-.139.06zm2.571-2.821c-.045 0-.091-.017-.127-.05-.078-.071-.084-.192-.013-.27.427-.472.853-.945 1.277-1.417.07-.08.191-.085.269-.014.078.07.084.192.014.27-.425.474-.851.946-1.279 1.419-.037.04-.089.062-.14.062zm2.551-2.84c-.045 0-.09-.016-.127-.05-.078-.07-.084-.19-.014-.27.423-.474.845-.95 1.267-1.426.07-.079.19-.086.268-.016.08.07.086.191.016.27-.42.477-.844.953-1.268 1.429-.038.041-.09.063-.142.063zm2.53-2.859c-.045 0-.09-.016-.126-.048-.079-.07-.087-.19-.017-.27.42-.478.84-.957 1.257-1.436.07-.08.189-.087.269-.018.079.07.086.19.017.27-.418.48-.837.959-1.257 1.437-.038.043-.09.065-.143.065zm2.51-2.877c-.045 0-.09-.016-.126-.047-.08-.07-.087-.19-.019-.27.417-.482.833-.963 1.247-1.445.069-.08.19-.089.269-.02.08.07.088.19.019.27-.414.482-.83.964-1.247 1.446-.038.043-.09.066-.144.066zm2.488-2.895c-.043 0-.088-.015-.124-.046-.08-.069-.088-.19-.02-.27.414-.484.826-.969 1.236-1.453.07-.08.19-.09.269-.022.08.069.09.19.021.27-.411.485-.824.97-1.238 1.455-.037.043-.09.066-.144.066zm2.47-2.911c-.044 0-.088-.015-.124-.046-.08-.068-.09-.189-.022-.27.41-.487.82-.974 1.227-1.462.07-.08.19-.09.269-.023.08.068.09.19.023.27-.408.487-.817.975-1.228 1.463-.038.045-.091.068-.145.068zm2.449-2.93c-.043 0-.087-.014-.122-.044-.08-.068-.091-.189-.024-.27.407-.49.813-.98 1.217-1.47.068-.081.188-.092.268-.025.082.068.092.189.025.27-.404.49-.81.98-1.218 1.47-.038.046-.092.07-.146.07zm2.43-2.944c-.042 0-.085-.015-.12-.044-.082-.067-.093-.188-.027-.27.405-.492.807-.985 1.208-1.478.066-.081.186-.093.267-.027.082.067.093.188.027.27-.401.493-.804.986-1.208 1.479-.038.046-.092.07-.147.07zm2.411-2.961c-.042 0-.085-.014-.12-.043-.082-.067-.094-.187-.027-.27.4-.495.8-.99 1.198-1.485.066-.082.186-.095.267-.028.082.066.095.187.029.269-.398.495-.798.99-1.2 1.486-.037.047-.092.07-.147.07zm2.392-2.977c-.042 0-.084-.013-.119-.042-.082-.066-.095-.186-.029-.269.398-.498.794-.996 1.189-1.493.066-.083.185-.096.267-.03.082.066.096.186.03.269-.395.498-.791.995-1.19 1.494-.037.047-.092.071-.148.071zm2.373-2.991c-.041 0-.083-.013-.118-.042-.082-.065-.096-.186-.03-.268l1.179-1.501c.065-.083.185-.097.267-.032.083.066.097.186.032.269l-1.18 1.501c-.038.048-.094.073-.15.073zm2.356-3.007c-.042 0-.083-.013-.118-.04-.082-.065-.097-.186-.032-.269l1.17-1.508c.065-.084.184-.099.267-.033.083.064.098.184.033.268-.388.503-.779 1.006-1.17 1.51-.038.047-.094.072-.15.072zm2.336-3.02c-.041 0-.082-.013-.116-.04-.084-.065-.099-.185-.035-.269.39-.506.776-1.01 1.161-1.515.064-.084.184-.1.267-.035.083.064.1.185.035.268l-1.162 1.517c-.037.048-.093.074-.15.074zm2.318-3.035c-.04 0-.08-.013-.116-.04-.083-.064-.1-.184-.036-.268.386-.508.77-1.016 1.152-1.522.064-.085.183-.1.267-.037.084.064.1.184.037.268-.383.507-.767 1.015-1.153 1.523-.037.05-.094.076-.151.076zm2.3-3.05c-.04 0-.08-.012-.114-.037-.084-.064-.1-.184-.037-.268.383-.511.764-1.021 1.143-1.53.063-.085.183-.101.266-.038.084.063.101.183.039.268l-1.144 1.53c-.038.05-.095.076-.152.076zm2.283-3.062c-.04 0-.08-.012-.114-.037-.084-.063-.102-.183-.04-.268.38-.513.759-1.025 1.135-1.536.063-.085.183-.102.267-.04.084.063.102.183.039.268l-1.134 1.537c-.038.05-.095.076-.153.076zm2.264-3.075c-.04 0-.079-.013-.113-.038-.084-.062-.103-.182-.04-.267l1.125-1.543c.062-.085.182-.103.266-.041.085.062.103.182.041.267-.373.514-.748 1.028-1.126 1.544-.037.05-.095.078-.153.078zm2.247-3.09c-.039 0-.078-.011-.111-.036-.085-.062-.104-.182-.042-.267l1.116-1.55c.061-.085.18-.104.266-.043.085.062.104.182.042.268-.37.515-.742 1.032-1.117 1.55-.037.051-.095.079-.154.079zm2.23-3.101c-.04 0-.078-.012-.112-.036-.085-.062-.105-.182-.044-.267.372-.52.741-1.039 1.108-1.556.062-.086.18-.105.266-.044.085.061.105.18.044.267l-1.108 1.556c-.037.052-.095.08-.155.08zm2.21-3.115c-.038 0-.076-.012-.11-.036-.085-.06-.105-.18-.045-.267l1.1-1.561c.06-.087.178-.107.264-.047.086.061.106.18.046.267-.364.52-.73 1.04-1.1 1.563-.036.053-.095.08-.154.08zm2.195-3.127c-.038 0-.076-.012-.11-.035-.085-.06-.106-.18-.046-.267.366-.524.73-1.047 1.09-1.567.06-.087.179-.108.265-.048.087.06.108.18.048.266l-1.091 1.57c-.037.052-.096.08-.156.08zm2.176-3.14c-.037 0-.075-.012-.108-.035-.087-.06-.108-.18-.049-.266.364-.527.724-1.051 1.082-1.574.06-.087.179-.11.265-.05.086.06.108.18.049.267l-1.082 1.575c-.038.053-.097.082-.157.082zm2.158-3.152c-.036 0-.074-.011-.107-.034-.087-.06-.109-.179-.05-.266l1.073-1.58c.06-.088.178-.11.265-.051.087.06.109.178.05.266-.355.525-.713 1.052-1.073 1.58-.037.055-.097.085-.158.085zm2.142-3.165c-.037 0-.074-.01-.107-.032-.087-.06-.11-.179-.05-.266l1.063-1.587c.059-.088.178-.11.264-.052.087.06.11.178.052.266l-1.064 1.587c-.037.055-.097.084-.158.084zm2.123-3.177c-.037 0-.074-.01-.106-.032-.087-.059-.11-.178-.053-.265.355-.534.707-1.065 1.055-1.593.058-.089.177-.111.264-.053.087.058.111.177.053.265-.349.529-.7 1.06-1.055 1.594-.037.055-.097.084-.158.084zm2.105-3.189c-.036 0-.073-.01-.105-.031-.088-.058-.112-.177-.054-.266.351-.536.7-1.068 1.045-1.598.058-.09.176-.113.264-.055.087.058.112.176.054.264-.345.53-.694 1.064-1.046 1.6-.036.056-.096.086-.158.086zm96.626-.948c-.054 0-.108-.023-.146-.068-.068-.08-.058-.202.022-.27.432-.367.917-.784 1.446-1.245.08-.07.2-.06.27.019.068.08.06.2-.02.27-.53.463-1.017.881-1.45 1.249-.035.03-.08.045-.122.045zm-94.54-2.253c-.035 0-.072-.01-.104-.031-.088-.058-.113-.176-.055-.265.349-.538.694-1.074 1.036-1.605.057-.089.176-.113.263-.056.089.057.113.176.057.264l-1.037 1.606c-.037.056-.098.087-.16.087zm97.42-.26c-.053 0-.105-.02-.143-.063-.07-.08-.063-.2.016-.27.453-.405.926-.833 1.416-1.281.077-.071.198-.065.269.012.07.078.065.2-.013.27-.49.45-.965.879-1.419 1.284-.036.033-.081.049-.126.049zm2.818-2.58c-.05 0-.101-.02-.139-.06-.071-.078-.067-.2.01-.271.452-.425.914-.863 1.383-1.315.076-.073.196-.07.27.006.072.077.07.198-.006.27-.471.453-.934.893-1.388 1.319-.036.034-.084.051-.13.051zm-98.169-.374c-.035 0-.071-.01-.103-.03-.088-.058-.114-.176-.057-.265.346-.54.688-1.078 1.027-1.61.056-.09.174-.115.262-.059.089.057.115.176.058.264-.338.534-.681 1.071-1.027 1.612-.036.057-.098.088-.16.088zm100.922-2.276c-.049 0-.098-.019-.135-.057-.074-.076-.073-.197.002-.271.446-.441.896-.892 1.348-1.351.074-.075.194-.076.27-.002.074.074.075.196 0 .271-.452.46-.903.912-1.35 1.355-.038.037-.086.055-.135.055zm-98.874-.95c-.034 0-.07-.01-.101-.03-.089-.056-.116-.174-.059-.263l1.017-1.617c.056-.09.174-.116.262-.06.089.056.116.174.06.264l-1.018 1.618c-.036.057-.098.088-.16.088zm101.552-1.776c-.047 0-.094-.017-.131-.053-.076-.073-.079-.194-.006-.27.436-.458.871-.923 1.304-1.393.071-.078.192-.082.269-.01.077.071.082.192.01.27-.433.472-.87.938-1.308 1.397-.038.04-.087.059-.138.059zm-99.522-1.462c-.034 0-.069-.01-.1-.03-.089-.055-.116-.174-.06-.263l1.006-1.623c.056-.09.174-.117.262-.062.09.056.117.174.061.263-.33.537-.667 1.078-1.007 1.625-.036.058-.098.09-.162.09zm102.111-1.353c-.045 0-.09-.017-.126-.049-.079-.07-.085-.19-.016-.27.422-.476.84-.956 1.25-1.44.068-.08.19-.09.268-.022.08.069.09.19.021.27-.412.486-.831.969-1.255 1.446-.037.043-.089.065-.142.065zm-100.101-1.9c-.034 0-.069-.009-.1-.028-.09-.055-.117-.173-.062-.263.337-.55.67-1.093.996-1.63.055-.09.172-.119.262-.064.09.056.118.173.063.263-.328.538-.66 1.082-.997 1.631-.036.06-.099.092-.162.092zm102.574-1.016c-.043 0-.085-.014-.12-.043-.082-.066-.095-.187-.028-.269.411-.51.807-1.014 1.177-1.498.064-.084.184-.1.267-.035.083.064.099.184.035.268-.372.488-.77.994-1.184 1.507-.037.046-.092.07-.147.07zm-79.561-1.185c-.202 0-.403-.001-.603-.005-.104-.001-.188-.089-.187-.194.002-.106.083-.185.194-.189.62.01 1.25.005 1.892-.018.1-.01.193.08.197.185.004.105-.079.194-.184.198-.442.016-.878.023-1.31.023zm-2.499-.09h-.013c-.639-.046-1.279-.112-1.903-.194-.104-.014-.177-.11-.163-.215.013-.105.111-.18.213-.165.617.082 1.25.146 1.88.193.105.007.184.099.177.204-.008.101-.092.178-.19.178zm5.7-.048c-.098 0-.181-.076-.19-.175-.009-.106.069-.198.174-.207.62-.053 1.253-.122 1.883-.205.102-.014.2.06.213.165.014.104-.06.2-.164.214-.635.084-1.274.154-1.9.207h-.016zm-9.466-.453c-.013 0-.025 0-.037-.004-.628-.123-1.255-.267-1.865-.43-.102-.026-.163-.131-.136-.234.027-.101.13-.163.233-.135.602.16 1.221.302 1.84.424.104.02.171.12.151.224-.018.092-.097.155-.186.155zm13.237-.043c-.09 0-.171-.066-.187-.159-.018-.104.05-.203.154-.221.612-.108 1.238-.232 1.859-.368.104-.023.204.043.227.146.022.103-.043.205-.146.228-.626.137-1.256.262-1.873.37-.012.003-.023.004-.034.004zm-27.997-.429c-.034 0-.069-.009-.1-.028-.09-.055-.117-.172-.063-.263.334-.552.662-1.098.985-1.636.055-.09.172-.12.261-.065.09.054.12.172.066.263-.324.538-.652 1.084-.987 1.637-.036.06-.099.092-.162.092zm31.714-.384c-.084 0-.162-.057-.184-.143-.026-.103.035-.207.137-.233.606-.157 1.22-.329 1.826-.51.103-.028.207.028.237.13.03.101-.028.208-.128.238-.61.181-1.23.354-1.84.513-.016.003-.032.005-.048.005zm-20.628-.122c-.02 0-.041-.003-.061-.01-.607-.207-1.209-.437-1.79-.683-.097-.041-.143-.154-.102-.25.041-.098.154-.143.25-.103.573.243 1.167.47 1.764.673.1.034.153.143.12.243-.028.08-.102.13-.181.13zm91.816-.286c-.039 0-.077-.012-.11-.036-.086-.061-.106-.181-.045-.267.378-.53.74-1.058 1.077-1.571.058-.088.175-.113.263-.054.088.058.112.177.054.265-.339.517-.704 1.05-1.085 1.583-.037.052-.095.08-.154.08zm-67.538-.658c-.082 0-.156-.053-.182-.135-.031-.1.025-.208.126-.239.603-.188 1.207-.378 1.81-.571.1-.033.208.024.24.124.032.101-.024.208-.124.24-.604.194-1.21.385-1.814.573-.019.005-.038.008-.056.008zm-27.779-.54c-.03 0-.059-.007-.086-.021-.572-.294-1.134-.612-1.671-.944-.09-.055-.118-.173-.063-.263.055-.09.172-.118.262-.063.53.327 1.083.64 1.645.93.094.047.13.163.083.257-.034.066-.1.104-.17.104zm31.401-.618c-.08 0-.154-.051-.18-.132-.033-.1.021-.208.121-.241.602-.198 1.204-.397 1.805-.6.1-.033.208.021.241.122.033.1-.02.208-.12.241-.602.203-1.205.403-1.808.6-.02.007-.04.01-.059.01zm-37.022-.67c-.033 0-.066-.008-.097-.026-.09-.055-.12-.172-.066-.263.329-.553.651-1.098.967-1.634l-.032-.028c-.08-.07-.088-.19-.019-.27.07-.08.19-.089.269-.02.47.41.966.808 1.475 1.182.084.062.103.182.041.267-.062.086-.181.104-.266.042-.4-.295-.794-.604-1.173-.922l-.935 1.58c-.036.06-.099.093-.164.093zm40.632-.541c-.08 0-.153-.05-.18-.13-.034-.1.02-.21.119-.243.6-.206 1.2-.414 1.8-.622.1-.035.207.018.242.118.034.1-.018.209-.117.243-.6.21-1.2.417-1.802.624-.021.007-.042.01-.062.01zm62.4-.172c-.034 0-.068-.009-.098-.027-.09-.054-.12-.171-.066-.262.333-.563.643-1.123.922-1.663.05-.094.163-.13.257-.081.093.048.13.164.081.258-.282.546-.595 1.112-.932 1.681-.037.061-.1.094-.165.094zm-58.801-1.084c-.079 0-.152-.05-.18-.128-.034-.1.017-.209.117-.244.6-.213 1.198-.427 1.795-.642.1-.035.209.016.244.116s-.016.209-.115.244c-.598.216-1.197.43-1.798.643-.02.007-.042.01-.063.01zm3.591-1.292c-.077 0-.15-.048-.178-.126-.037-.1.015-.21.114-.245.598-.218 1.197-.437 1.793-.657.099-.036.208.015.244.114.036.1-.015.21-.113.246-.597.22-1.195.439-1.795.657-.02.007-.043.011-.065.011zm-48.307-.13c-.05 0-.1-.02-.137-.058-.447-.465-.874-.951-1.27-1.446-.066-.083-.053-.203.03-.27.081-.065.2-.052.267.03.388.486.808.963 1.247 1.42.073.076.071.198-.004.27-.037.036-.085.054-.133.054zm2.404-.084c-.031 0-.063-.007-.092-.023-.092-.051-.126-.167-.075-.26.307-.563.6-1.131.874-1.69.047-.094.16-.132.255-.086.094.046.133.161.086.256-.275.563-.572 1.136-.881 1.704-.035.064-.1.1-.167.1zm102.855-.812c-.025 0-.05-.005-.075-.015-.097-.042-.142-.154-.1-.251.258-.609.48-1.206.657-1.775.03-.101.138-.157.238-.125.1.031.156.139.125.24-.181.58-.407 1.19-.67 1.81-.031.073-.101.116-.175.116zm-53.371-.29c-.078 0-.15-.048-.179-.125-.036-.1.014-.21.113-.246l1.784-.664c.098-.038.208.013.245.113.037.099-.014.209-.112.246-.594.222-1.189.443-1.786.664-.021.008-.044.012-.065.012zm3.567-1.332c-.077 0-.15-.048-.178-.125-.037-.099.013-.209.112-.246l1.782-.67c.099-.037.208.013.246.112.036.1-.014.21-.112.247l-1.783.67c-.022.008-.044.012-.067.012zm-57.832-.461c-.062 0-.123-.03-.16-.086-.356-.546-.681-1.108-.968-1.67-.048-.093-.011-.209.082-.257.093-.048.209-.011.257.083.28.55.6 1.1.948 1.634.057.088.033.207-.055.265-.033.021-.069.031-.104.031zm6.456-.538c-.025 0-.05-.005-.075-.015-.096-.042-.141-.155-.1-.252.257-.598.492-1.192.699-1.766.036-.1.145-.151.244-.115.099.036.15.146.114.246-.21.58-.447 1.182-.707 1.787-.031.072-.101.115-.175.115zm54.941-.342c-.077 0-.15-.048-.178-.125-.037-.099.013-.209.111-.246l1.782-.671c.098-.037.209.013.245.112.037.1-.013.21-.112.246l-1.781.671c-.022.008-.045.013-.067.013zm47.355-.684l-.033-.003c-.104-.018-.173-.116-.156-.22.1-.589.15-1.161.15-1.702l-.001-.163c-.002-.106.082-.193.187-.195.105 0 .191.082.194.187l.001.171c0 .562-.052 1.156-.155 1.765-.016.094-.096.16-.187.16zm-43.79-.658c-.078 0-.15-.047-.179-.124-.036-.1.014-.21.112-.246l1.784-.668c.098-.038.208.014.245.113.036.099-.014.21-.112.246l-1.784.667c-.021.008-.044.012-.066.012zm-66.691-1.177c-.077 0-.15-.048-.179-.125-.23-.618-.416-1.243-.554-1.855-.023-.103.041-.206.144-.229.103-.023.204.042.227.145.135.595.316 1.203.54 1.806.037.098-.013.208-.111.246-.023.007-.045.012-.067.012zm70.26-.154c-.078 0-.15-.048-.179-.125-.036-.1.014-.21.113-.246l1.786-.658c.1-.037.208.015.245.114.036.1-.015.21-.114.245l-1.786.658c-.021.008-.044.012-.066.012zm-60.784-.58c-.017 0-.035-.003-.052-.008-.101-.028-.16-.134-.131-.236.178-.63.326-1.25.441-1.843.02-.104.124-.172.223-.152.104.02.17.12.151.225-.117.604-.267 1.235-.45 1.875-.023.084-.1.139-.182.139zm64.36-.73c-.079 0-.152-.048-.18-.126-.035-.1.016-.21.115-.245.603-.217 1.2-.432 1.794-.643.099-.035.207.017.243.117.034.1-.017.209-.116.244-.593.21-1.19.425-1.792.642-.021.008-.043.011-.064.011zm36.533-.491c-.084 0-.16-.056-.184-.141-.165-.602-.412-1.173-.736-1.697-.055-.09-.028-.208.062-.263.088-.055.206-.029.262.061.342.555.605 1.16.78 1.797.028.102-.032.208-.134.236-.016.004-.033.007-.05.007zm-32.944-.783c-.079 0-.153-.05-.18-.129-.034-.1.018-.209.118-.243.606-.211 1.207-.418 1.802-.62.102-.034.207.02.24.12.035.1-.019.21-.119.243-.594.202-1.194.408-1.799.618-.02.008-.041.011-.062.011zm-78.246-.984c-.1 0-.184-.078-.19-.18-.014-.218-.02-.433-.02-.646 0-.444.029-.882.087-1.3.015-.105.113-.177.215-.163.104.015.177.112.162.216-.055.401-.084.82-.084 1.247 0 .205.007.413.02.623.006.106-.074.196-.179.203h-.011zm81.853-.238c-.08 0-.155-.05-.181-.132-.033-.1.022-.208.122-.24.611-.202 1.216-.397 1.814-.586.1-.03.207.025.238.126.032.1-.024.208-.124.24-.597.188-1.2.383-1.81.583-.02.006-.04.01-.06.01zM259.31 7.34h-.016c-.105-.01-.183-.102-.174-.207.032-.384.047-.761.047-1.122 0-.262-.008-.516-.024-.76-.007-.106.072-.197.177-.204.106-.005.196.073.203.178.017.256.025.52.025.786 0 .371-.016.76-.049 1.153-.008.1-.09.176-.19.176zm74.479-.618c-.083 0-.158-.054-.183-.137-.03-.101.027-.208.128-.238.618-.186 1.228-.365 1.83-.536.1-.03.206.03.235.132.029.102-.03.208-.132.236-.6.17-1.208.348-1.823.534-.019.006-.038.009-.055.009zm23.747-.075c-.047 0-.096-.018-.132-.054-.44-.427-.935-.809-1.472-1.134-.09-.055-.12-.172-.065-.263.054-.09.171-.12.261-.065.562.34 1.08.74 1.54 1.187.075.074.078.195.004.27-.036.04-.086.059-.136.059zm-20.084-.963c-.085 0-.162-.057-.184-.143-.027-.102.034-.207.136-.234.626-.164 1.243-.32 1.85-.465.1-.025.205.04.23.142.023.103-.04.206-.142.23-.604.145-1.218.3-1.841.464-.017.004-.033.006-.049.006zm3.702-.882c-.088 0-.167-.062-.186-.152-.021-.104.044-.205.148-.227.642-.135 1.273-.257 1.875-.362.105-.017.202.052.22.156.018.104-.051.203-.155.221-.597.105-1.224.226-1.862.36-.014.002-.027.004-.04.004zm13.16-.13c-.022 0-.044-.003-.065-.011-.558-.203-1.166-.369-1.806-.494-.103-.02-.17-.12-.15-.224.02-.104.121-.172.223-.152.659.13 1.286.3 1.862.51.099.036.15.145.115.245-.029.078-.101.126-.18.126zM248.86 4.354c-.025 0-.05-.005-.073-.014-.097-.041-.143-.153-.103-.25.258-.623.598-1.187 1.012-1.68.069-.08.189-.09.268-.021.08.068.09.189.022.27-.388.46-.708.992-.95 1.577-.03.074-.102.118-.176.118zm96.042-.204c-.094 0-.176-.07-.188-.167-.013-.104.06-.2.164-.214.652-.086 1.292-.154 1.901-.202.097-.007.196.07.204.175.009.106-.07.198-.174.206-.603.048-1.236.115-1.882.2l-.025.002zm5.693-.231l-.015-.001c-.523-.04-1.072-.065-1.645-.06l-.239.002h-.002c-.104 0-.19-.084-.19-.19-.002-.105.082-.192.187-.193l.279-.001c.565 0 1.117.02 1.639.06.105.009.183.1.175.206-.007.1-.09.177-.189.177zm-91.575-.373c-.083 0-.16-.055-.183-.139-.185-.646-.445-1.207-.772-1.665-.061-.086-.041-.205.044-.267.085-.062.204-.043.266.044.352.494.63 1.094.828 1.783.029.101-.03.207-.13.236-.018.006-.036.008-.053.008zm-7.739-2.055c-.064 0-.127-.033-.162-.092-.055-.09-.027-.208.063-.263.536-.329 1.138-.587 1.79-.77.102-.03.207.031.235.133.028.102-.031.208-.133.236-.618.173-1.188.418-1.694.728-.031.019-.065.028-.099.028zm5.489-.866c-.024 0-.049-.004-.072-.014-.308-.126-.635-.192-.97-.196h-.135c-.234 0-.462.006-.684.02-.103.003-.195-.073-.202-.179-.006-.105.074-.196.178-.203.23-.014.466-.021.708-.021h.14c.383.005.756.08 1.11.225.096.04.143.151.104.25-.031.073-.102.118-.177.118zM333.97 44.957c-.056 0-.111-.025-.149-.072-.066-.083-.052-.203.03-.269.001 0 .264-.21.736-.6.081-.067.202-.055.269.027.066.081.054.202-.027.27-.475.392-.74.603-.74.603-.036.028-.077.041-.119.041z" transform="translate(15 7)"/>
        </g>
        <path fill="#BF9BF9" d="M167.697 67c-.015 0-.03-.002-.045-.006-.06-.016-.113-.056-.134-.114-.028-.076.006-.17.067-.22.074-.063.515-.433 1.23-1.048.08-.068.2-.06.268.02s.06.201-.02.27c-.717.615-1.16.987-1.234 1.05-.036.03-.084.048-.132.048zm2.686-2.306c-.053 0-.106-.022-.144-.065-.069-.08-.06-.2.018-.27.438-.382.918-.806 1.433-1.263.078-.07.198-.063.269.016.07.079.062.2-.017.27-.515.458-.996.882-1.434 1.265-.036.032-.08.047-.125.047zm2.856-2.54c-.052 0-.104-.022-.142-.064-.07-.078-.064-.199.014-.27.455-.41.926-.84 1.412-1.285.077-.071.198-.066.268.012.071.077.066.198-.011.27-.486.446-.959.876-1.414 1.287-.036.033-.082.05-.127.05zm2.814-2.585c-.051 0-.102-.02-.14-.06-.071-.078-.067-.199.01-.27.456-.426.92-.863 1.389-1.31.076-.072.196-.069.269.008.072.076.07.197-.007.27-.47.446-.934.884-1.392 1.311-.036.034-.083.051-.13.051zm2.766-2.633c-.05 0-.1-.02-.137-.058-.073-.076-.07-.197.005-.27.453-.44.908-.886 1.361-1.336.075-.074.195-.074.27 0 .073.076.073.197-.002.27-.455.452-.91.9-1.364 1.34-.038.036-.085.054-.133.054zm2.713-2.695c-.048 0-.097-.018-.134-.054-.074-.074-.075-.195-.002-.27.446-.454.888-.911 1.325-1.369.072-.076.192-.079.269-.006.076.073.078.194.006.27-.438.459-.882.917-1.329 1.372-.037.038-.086.057-.135.057zm2.632-2.763c-.046 0-.092-.017-.129-.051-.077-.072-.082-.192-.01-.27.436-.473.862-.945 1.277-1.414.07-.079.19-.086.269-.016.078.07.085.19.016.269-.416.471-.845.945-1.283 1.42-.037.041-.088.062-.14.062zm-100.041-.98c-.598 0-1.185-.008-1.762-.023-.105-.003-.188-.09-.185-.196.003-.105.083-.187.195-.185.58.015 1.176.022 1.771.023h.126c.105 0 .19.084.19.19.001.105-.083.19-.188.191h-.148zm2.048-.028c-.102 0-.187-.082-.19-.185-.003-.106.08-.193.185-.196.622-.018 1.255-.043 1.897-.076.102-.009.194.075.2.18.005.106-.076.195-.18.2-.646.034-1.281.06-1.907.077h-.005zm-5.705-.074h-.012c-.643-.037-1.284-.085-1.903-.142-.105-.01-.182-.103-.173-.207.01-.105.107-.18.207-.173.616.057 1.252.104 1.891.141.105.006.185.096.179.201-.005.101-.089.18-.19.18zm9.506-.122c-.099 0-.182-.076-.19-.177-.008-.105.071-.196.176-.204.622-.046 1.252-.1 1.892-.16.103-.012.197.067.207.172.01.105-.067.198-.172.208-.642.06-1.275.114-1.9.16l-.013.001zm-13.294-.229l-.025-.001c-.64-.084-1.275-.18-1.889-.287-.103-.018-.173-.117-.155-.22.018-.104.115-.174.22-.156.609.106 1.239.202 1.873.284.104.013.178.11.164.214-.012.096-.094.166-.188.166zm17.082-.13c-.096 0-.178-.071-.19-.168-.011-.105.064-.2.168-.211.621-.072 1.25-.15 1.885-.234.105-.013.2.06.214.164.014.104-.06.2-.164.214-.638.085-1.269.163-1.892.234-.006.002-.014.002-.021.002zm3.772-.5c-.093 0-.174-.068-.188-.163-.016-.104.056-.201.16-.217.619-.093 1.244-.192 1.877-.298.103-.018.201.053.219.157.017.104-.053.202-.157.22-.634.105-1.262.205-1.882.298l-.029.003zm-24.6-.027c-.014 0-.029-.001-.043-.005-.635-.143-1.259-.3-1.854-.47-.1-.029-.16-.134-.131-.236.029-.1.134-.16.235-.131.588.167 1.205.323 1.834.465.103.023.167.125.144.228-.02.089-.098.15-.186.15zm28.354-.6c-.09 0-.17-.064-.187-.156-.019-.104.05-.204.153-.222.616-.113 1.238-.232 1.866-.356.103-.021.203.047.224.15.02.104-.047.204-.15.224-.63.125-1.255.244-1.872.357-.011.002-.023.003-.034.003zm85.405-.175c-.043 0-.087-.015-.122-.045-.08-.067-.09-.188-.023-.269.426-.509.83-1.006 1.2-1.478.064-.083.184-.098.266-.033.083.066.098.185.033.268-.372.475-.778.976-1.208 1.489-.037.045-.091.068-.146.068zm-117.416-.27c-.021 0-.043-.003-.064-.01-.616-.22-1.216-.458-1.781-.709-.096-.042-.14-.155-.097-.251.043-.096.155-.14.251-.098.557.247 1.147.482 1.754.698.1.035.15.144.116.244-.028.078-.101.127-.18.127zm35.744-.294c-.088 0-.167-.061-.186-.151-.022-.103.044-.204.147-.226.613-.13 1.232-.267 1.856-.408.103-.022.205.042.228.144.023.103-.042.205-.144.228-.626.142-1.246.278-1.861.409-.014.003-.027.004-.04.004zm3.712-.84c-.086 0-.164-.06-.185-.147-.024-.102.039-.205.141-.23.61-.146 1.225-.297 1.846-.454.101-.025.205.036.23.138.026.102-.036.206-.138.232-.621.157-1.238.309-1.85.456-.014.003-.029.005-.044.005zm-42.927-.416c-.031 0-.063-.007-.093-.024-.575-.32-1.123-.665-1.628-1.023-.085-.06-.106-.18-.045-.265.061-.087.18-.107.265-.046.493.35 1.03.687 1.593 1.001.092.051.125.167.074.26-.034.062-.1.097-.166.097zm46.617-.517c-.084 0-.161-.057-.184-.142-.026-.102.034-.206.136-.233l1.838-.49c.102-.026.206.034.233.136.027.101-.034.206-.135.233l-1.839.49c-.016.004-.033.006-.05.006zm76.618-.676c-.038 0-.077-.012-.11-.036-.086-.06-.106-.18-.045-.266.392-.551.745-1.083 1.05-1.58.054-.09.171-.119.26-.063.09.055.118.172.064.262-.31.504-.667 1.044-1.064 1.603-.037.052-.095.08-.155.08zm-72.94-.3c-.084 0-.16-.057-.183-.143-.027-.102.034-.206.135-.233l1.841-.484c.101-.025.206.035.232.137.027.102-.034.206-.136.233l-1.84.483c-.016.005-.032.007-.048.007zm-53.384-.715c-.046 0-.092-.017-.13-.05-.483-.449-.924-.925-1.312-1.417-.065-.082-.052-.202.03-.268.084-.065.203-.05.268.032.376.476.804.938 1.273 1.372.077.072.082.193.01.27-.037.04-.088.06-.139.06zm57.066-.25c-.084 0-.161-.056-.183-.142-.027-.102.034-.206.136-.233l1.842-.478c.103-.024.206.036.232.138.027.102-.035.206-.137.232l-1.841.477c-.017.004-.033.006-.049.006zm3.685-.95c-.085 0-.162-.057-.184-.144-.026-.102.036-.206.137-.232l1.845-.47c.1-.025.205.036.23.139.026.102-.035.206-.137.232-.609.154-1.223.31-1.844.469-.015.004-.031.006-.047.006zm3.69-.935c-.085 0-.163-.058-.184-.144-.026-.103.036-.206.138-.232.621-.156 1.237-.31 1.846-.461.101-.025.205.037.23.14.026.101-.036.205-.138.23l-1.846.461c-.015.004-.03.006-.046.006zm63.848-.121c-.027 0-.054-.006-.08-.018-.095-.043-.137-.157-.093-.253.299-.65.496-1.242.586-1.756.018-.103.117-.171.22-.155.104.019.173.118.155.221-.096.547-.303 1.169-.615 1.85-.032.07-.101.11-.173.11zm-130.625-.727c-.068 0-.134-.037-.168-.1-.306-.573-.557-1.175-.748-1.789-.031-.1.025-.207.125-.238.101-.03.208.025.239.125.183.59.425 1.17.72 1.72.05.094.014.21-.078.26-.03.014-.06.022-.09.022zm70.47-.07c-.086 0-.163-.058-.185-.145-.025-.103.038-.206.14-.231.623-.153 1.239-.304 1.849-.452.102-.026.204.038.23.14.024.103-.039.206-.141.23l-1.848.452c-.015.005-.03.006-.045.006zm3.698-.899c-.086 0-.164-.058-.185-.146-.024-.102.038-.205.14-.23.624-.15 1.242-.296 1.852-.44.102-.025.205.038.23.14.023.103-.04.206-.142.23l-1.85.441c-.016.004-.03.005-.045.005zm3.703-.876c-.086 0-.164-.06-.185-.148-.023-.102.04-.205.143-.228.625-.146 1.243-.29 1.854-.43.1-.024.204.041.228.144.023.102-.04.205-.143.228-.61.14-1.228.283-1.853.43-.015.002-.03.004-.044.004zm3.71-.851c-.088 0-.166-.06-.186-.15-.023-.102.041-.204.143-.227.628-.142 1.247-.28 1.858-.416.102-.022.204.043.227.145.022.103-.042.205-.145.228-.61.135-1.23.273-1.856.415-.014.003-.028.005-.042.005zm49.403-.225c-.065 0-.127-.033-.163-.091-.018-.03-.037-.06-.057-.089-.339-.482-.72-.93-1.135-1.33-.076-.073-.078-.193-.005-.27.073-.075.194-.077.27-.004.431.417.829.883 1.181 1.385.025.035.048.072.071.109.055.09.027.207-.063.262-.032.019-.066.028-.1.028zm-45.688-.598c-.088 0-.167-.061-.186-.15-.022-.103.043-.205.146-.228.629-.136 1.25-.27 1.861-.399.103-.02.204.044.226.148.022.103-.044.204-.147.226-.611.13-1.231.262-1.86.399-.013.003-.027.004-.04.004zm-86.418-.097c-.096 0-.178-.072-.19-.17-.044-.4-.067-.813-.067-1.226 0-.235.007-.471.022-.71.006-.105.096-.184.201-.178.105.006.185.096.179.202-.014.23-.022.459-.022.686 0 .399.023.797.066 1.183.011.105-.064.2-.168.211l-.021.002zm90.14-.692c-.088 0-.167-.062-.186-.152-.021-.103.045-.204.148-.225.631-.13 1.253-.257 1.866-.38.102-.022.203.046.223.15.021.103-.046.203-.149.224-.612.122-1.233.249-1.863.38l-.039.003zm3.731-.748c-.09 0-.169-.064-.186-.155-.02-.103.047-.203.15-.223.634-.124 1.257-.243 1.87-.358.104-.018.203.05.222.153.02.104-.048.203-.152.222-.612.115-1.234.234-1.867.357-.012.003-.024.004-.037.004zm35.519-.497c-.036 0-.071-.01-.103-.03-.502-.322-1.059-.615-1.654-.87-.096-.042-.141-.154-.1-.25.042-.097.154-.142.25-.1.614.263 1.189.565 1.71.9.088.056.114.174.057.263-.036.056-.098.087-.16.087zm-31.779-.204c-.09 0-.17-.065-.187-.157-.018-.104.05-.203.154-.222.637-.114 1.261-.224 1.875-.33.104-.017.203.052.22.156.018.103-.052.202-.155.22-.613.105-1.237.215-1.872.33l-.035.003zm3.75-.643c-.091 0-.172-.067-.187-.16-.017-.104.053-.202.157-.22.64-.103 1.267-.202 1.882-.295.103-.017.2.056.216.16.016.104-.056.202-.16.217-.613.093-1.239.192-1.877.295l-.03.003zm3.762-.57c-.093 0-.175-.07-.188-.165-.015-.104.058-.2.162-.216.644-.09 1.273-.174 1.888-.252.104-.013.2.061.212.166.014.104-.06.2-.165.213-.613.078-1.24.161-1.883.251-.008.002-.017.002-.026.002zm20.793-.1c-.018 0-.035-.002-.053-.007-.572-.163-1.189-.307-1.834-.427-.103-.02-.172-.12-.153-.222.02-.104.119-.173.222-.153.657.122 1.286.268 1.87.435.1.029.16.134.13.236-.023.083-.1.138-.182.138zm-125.7-.335c-.013 0-.027-.001-.04-.004-.103-.022-.168-.124-.146-.226.129-.608.305-1.232.522-1.857.035-.1.144-.152.242-.117.1.034.152.143.117.243-.212.61-.383 1.219-.51 1.81-.018.09-.097.151-.185.151zm108.681-.043c-.095 0-.178-.073-.189-.17-.011-.105.064-.2.168-.21.649-.073 1.28-.139 1.896-.196.106-.015.197.067.207.172.01.105-.067.198-.171.208-.613.057-1.243.122-1.89.195h-.02zm13.285-.33l-.021-.001c-.598-.068-1.232-.12-1.885-.157-.105-.006-.185-.096-.18-.202.007-.105.096-.184.201-.18.66.038 1.301.092 1.906.16.105.012.18.106.168.21-.01.098-.093.17-.189.17zm-9.497-.026c-.099 0-.182-.076-.19-.177-.008-.105.071-.196.176-.204.654-.049 1.288-.088 1.903-.12.098-.004.194.076.2.181.004.105-.076.195-.181.2-.612.031-1.243.07-1.894.119h-.014zm3.799-.188c-.104 0-.188-.083-.19-.187-.003-.105.08-.193.186-.195.66-.014 1.297-.017 1.909-.01.105.002.189.089.187.194-.001.104-.086.188-.19.188h-.003c-.607-.008-1.239-.005-1.895.01h-.004zM60.71 30.6c-.027 0-.055-.005-.081-.018-.095-.045-.136-.158-.091-.254.263-.561.564-1.134.892-1.701.053-.091.17-.122.26-.07.091.054.122.17.07.261-.324.558-.62 1.12-.878 1.673-.033.069-.1.11-.172.11zm1.901-3.297c-.037 0-.074-.011-.107-.034-.087-.06-.11-.178-.05-.265.349-.511.729-1.033 1.13-1.549.064-.083.183-.098.267-.033.082.065.097.185.033.268-.396.51-.771 1.025-1.115 1.53-.037.054-.097.083-.158.083zm2.331-3.012c-.044 0-.088-.016-.124-.047-.08-.07-.088-.19-.019-.27.407-.47.84-.947 1.287-1.416.073-.075.193-.079.269-.006.076.073.079.194.006.27-.442.465-.87.937-1.275 1.403-.038.044-.09.066-.144.066zm147.867-.772c-.028 0-.057-.007-.084-.02-.001-.001-.601-.3-1.725-.83-.096-.046-.136-.16-.091-.254.045-.096.158-.136.253-.092 1.13.533 1.732.834 1.732.834.095.048.133.162.086.256-.033.067-.1.106-.17.106zm-3.461-1.638c-.027 0-.054-.006-.08-.017-.524-.24-1.104-.504-1.737-.787-.096-.043-.139-.156-.096-.252.043-.096.155-.14.252-.096.634.283 1.215.547 1.74.788.095.044.137.157.094.253-.032.07-.101.111-.173.111zm-141.784-.352c-.05 0-.1-.02-.137-.058-.073-.075-.07-.196.005-.27.448-.433.918-.872 1.398-1.303.078-.071.198-.064.269.014.07.078.063.199-.015.27-.476.428-.943.863-1.388 1.294-.036.036-.084.053-.132.053zm138.3-1.208c-.025 0-.05-.005-.076-.016-.553-.242-1.137-.495-1.748-.758-.097-.041-.142-.153-.1-.25.041-.097.154-.142.25-.1.612.262 1.197.516 1.75.759.097.042.141.154.1.25-.032.073-.102.115-.175.115zm-135.469-1.34c-.055 0-.108-.024-.146-.068-.067-.081-.057-.202.024-.269.474-.399.972-.805 1.48-1.208.082-.065.202-.05.267.032.065.083.05.203-.031.268-.505.4-1 .803-1.471 1.2-.036.03-.08.045-.123.045zm131.965-.163c-.025 0-.05-.005-.074-.016-.566-.238-1.153-.482-1.759-.731-.096-.04-.143-.152-.103-.25.04-.097.15-.143.248-.103.607.25 1.194.494 1.761.733.097.04.143.152.102.25-.03.073-.1.117-.175.117zm-3.524-1.453c-.024 0-.048-.004-.072-.014-.575-.232-1.164-.468-1.768-.708-.097-.038-.145-.15-.107-.247.039-.098.15-.146.247-.107.605.24 1.195.476 1.77.708.098.04.145.15.106.249-.03.074-.101.119-.176.119zm-125.456-.75c-.058 0-.115-.026-.153-.076-.063-.085-.045-.204.039-.267.5-.374 1.014-.75 1.543-1.124.086-.061.204-.04.265.045.06.087.04.206-.045.267-.526.373-1.037.746-1.536 1.118-.034.025-.074.038-.113.038zm121.913-.654c-.023 0-.047-.004-.07-.013-.58-.226-1.173-.454-1.776-.684-.099-.038-.148-.148-.11-.247.037-.098.147-.148.245-.11.605.23 1.198.458 1.78.685.098.038.146.148.108.247-.03.075-.101.122-.177.122zm-3.561-1.357c-.022 0-.045-.004-.066-.012-.586-.219-1.182-.439-1.786-.66-.099-.036-.15-.146-.114-.244.036-.1.145-.15.244-.114.605.221 1.201.442 1.788.66.098.037.149.147.112.246-.029.077-.101.124-.178.124zm-115.248-.193c-.061 0-.121-.03-.158-.085-.059-.087-.036-.205.052-.264.518-.35 1.049-.701 1.592-1.051.09-.057.207-.032.263.057.057.088.032.206-.057.264-.54.348-1.07.697-1.586 1.046-.032.022-.07.033-.106.033zm111.67-1.116c-.022 0-.044-.003-.065-.011-.59-.211-1.188-.423-1.794-.635-.1-.035-.151-.144-.117-.244.035-.099.143-.15.243-.117.606.213 1.205.425 1.796.637.1.035.15.145.115.244-.027.077-.1.126-.179.126zm-108.47-.95c-.064 0-.126-.031-.162-.09-.056-.09-.028-.207.062-.262.533-.33 1.078-.658 1.633-.986.09-.054.207-.023.26.067.053.09.023.208-.067.262-.553.326-1.095.654-1.627.982-.031.019-.065.028-.1.028zm104.875-.31c-.021 0-.042-.003-.062-.01-.594-.204-1.195-.408-1.803-.612-.1-.033-.153-.141-.12-.241s.142-.154.24-.12c.61.203 1.21.407 1.806.612.1.034.152.142.119.242-.028.08-.101.129-.18.129zm-3.612-1.21c-.02 0-.04-.004-.06-.01-.597-.196-1.2-.392-1.81-.586-.1-.032-.156-.14-.124-.24.032-.1.14-.156.24-.124.61.195 1.214.391 1.813.587.1.033.154.14.122.24-.027.081-.101.132-.181.132zm-97.986-.418c-.066 0-.131-.035-.166-.097-.052-.092-.02-.208.072-.26.545-.31 1.1-.619 1.666-.927.092-.051.207-.016.258.076.05.093.016.209-.076.259-.563.307-1.117.616-1.66.925-.03.016-.062.024-.094.024zm94.358-.743c-.019 0-.038-.003-.057-.008-.601-.188-1.208-.375-1.819-.56-.1-.03-.157-.138-.126-.238.03-.101.136-.158.237-.128.612.186 1.22.373 1.821.56.1.032.157.14.126.24-.026.082-.101.134-.182.134zM86.302 8.581c-.069 0-.135-.037-.17-.102-.048-.093-.012-.209.08-.258l.58-.302c.371-.193.745-.382 1.12-.567.095-.046.209-.007.255.087.046.095.007.209-.087.255-.373.184-.744.372-1.113.564l-.577.301c-.028.015-.059.022-.088.022zm87.372-.024c-.018 0-.036-.002-.054-.008-.604-.179-1.214-.356-1.827-.533-.1-.029-.159-.135-.13-.236.028-.101.133-.16.235-.13.614.176 1.224.354 1.83.533.1.03.158.136.128.237-.024.083-.1.137-.182.137zm-3.66-1.052c-.016 0-.034-.003-.05-.008-.609-.17-1.22-.338-1.835-.504-.102-.028-.162-.132-.134-.234.027-.102.132-.163.233-.134.615.166 1.228.335 1.837.505.101.028.16.133.132.235-.023.084-.1.14-.183.14zM89.717 6.9c-.073 0-.142-.042-.174-.112-.043-.096-.001-.21.095-.253.573-.26 1.162-.517 1.75-.762.097-.04.21.006.25.103.04.097-.006.209-.103.25-.585.243-1.17.498-1.74.757-.026.011-.052.017-.078.017zm76.621-.39c-.016 0-.032-.003-.048-.007-.61-.16-1.225-.319-1.842-.475-.102-.026-.163-.13-.138-.232.026-.102.13-.164.231-.138.619.157 1.233.315 1.845.476.102.026.163.13.136.233-.022.086-.1.142-.184.142zm-3.691-.936c-.015 0-.03-.002-.045-.006-.615-.15-1.231-.298-1.85-.444-.103-.024-.166-.127-.142-.229.024-.103.126-.166.229-.142.62.146 1.238.294 1.853.444.102.025.164.129.14.23-.021.088-.1.147-.185.147zm-69.417-.14c-.077 0-.149-.047-.178-.123-.037-.099.012-.209.11-.246.585-.224 1.188-.445 1.793-.656.1-.035.208.018.243.117.034.1-.018.209-.117.243-.602.21-1.201.43-1.783.652-.023.009-.046.013-.068.013zm65.71-.733c-.013 0-.027-.001-.042-.005-.616-.14-1.235-.276-1.857-.41-.102-.023-.167-.125-.145-.228.022-.103.124-.168.226-.146.622.135 1.242.273 1.86.412.103.024.167.126.144.229-.02.088-.098.148-.185.148zm-62.117-.523c-.08 0-.155-.052-.181-.133-.032-.1.023-.208.124-.24.597-.19 1.211-.376 1.826-.553.1-.03.206.03.236.13.029.102-.03.208-.13.237-.612.176-1.224.361-1.817.55-.02.006-.039.01-.058.01zm58.396-.283c-.013 0-.026-.001-.039-.004-.62-.128-1.24-.254-1.864-.377-.103-.02-.17-.12-.15-.224.02-.103.12-.17.223-.15.625.123 1.247.25 1.868.377.103.022.169.122.148.226-.019.09-.098.152-.186.152zm-3.736-.736c-.011 0-.023-.001-.035-.004-.62-.115-1.241-.228-1.864-.339-.104-.018-.173-.117-.155-.22.019-.104.118-.175.22-.155.625.11 1.247.223 1.869.34.103.018.17.118.152.222-.017.091-.097.156-.187.156zm-51.002-.036c-.085 0-.162-.057-.184-.143-.026-.102.035-.206.137-.233.614-.16 1.232-.311 1.853-.456.102-.025.205.04.228.142.024.103-.04.206-.142.23-.618.144-1.232.295-1.844.454-.016.004-.032.006-.048.006zm47.265-.625c-.01 0-.021 0-.032-.002-.623-.104-1.248-.204-1.873-.3-.104-.017-.175-.114-.16-.218.017-.104.115-.175.218-.16.627.097 1.253.198 1.878.301.103.018.174.116.156.22-.015.093-.096.16-.187.16zm-43.557-.24c-.088 0-.167-.062-.186-.152-.021-.103.045-.204.148-.226.621-.129 1.245-.25 1.873-.365.104-.02.202.05.221.153.02.104-.05.203-.153.222-.624.114-1.245.236-1.864.364-.013.003-.026.004-.039.004zm39.8-.342l-.026-.001c-.627-.09-1.255-.177-1.883-.26-.104-.014-.177-.11-.164-.214.014-.105.109-.179.214-.165.63.084 1.259.17 1.886.261.104.015.177.112.162.216-.014.095-.095.163-.188.163zm-36.055-.344c-.092 0-.173-.067-.188-.16-.016-.105.054-.203.158-.219.627-.1 1.256-.194 1.888-.28.103-.015.2.058.214.163.014.104-.059.2-.163.215-.628.086-1.255.179-1.879.279l-.03.002zm32.283-.155l-.023-.001c-.63-.076-1.26-.148-1.89-.216-.104-.011-.18-.106-.169-.21.012-.105.105-.18.21-.17.632.069 1.264.141 1.894.217.105.013.18.108.167.212-.012.097-.094.168-.189.168zm-28.511-.364c-.095 0-.178-.072-.189-.17-.012-.104.063-.199.167-.21.63-.074 1.263-.14 1.897-.202.11-.01.198.067.208.172.01.105-.067.198-.171.208-.632.06-1.262.127-1.89.2l-.022.002zm24.723-.045l-.018-.001c-.632-.06-1.264-.117-1.897-.169-.105-.008-.183-.1-.174-.206.009-.105.1-.183.205-.174.634.052 1.268.109 1.902.17.105.01.182.102.171.207-.009.1-.092.173-.19.173zm-3.802-.313h-.013c-.634-.044-1.268-.084-1.902-.119-.105-.006-.185-.095-.18-.2.006-.106.099-.187.2-.181.636.035 1.272.075 1.908.118.105.007.184.099.177.204-.007.101-.09.178-.19.178zM115.496.689c-.099 0-.182-.076-.19-.176-.008-.105.07-.197.175-.205.633-.048 1.268-.091 1.903-.127.104-.006.195.074.201.18.007.104-.074.194-.179.2-.633.037-1.265.08-1.896.127h-.014zm13.32-.203h-.008c-.634-.027-1.268-.048-1.902-.064-.105-.003-.188-.09-.185-.196.002-.105.081-.18.195-.186.635.017 1.272.038 1.908.064.105.004.187.093.182.198-.004.103-.088.184-.19.184zm-9.519-.017c-.102 0-.186-.08-.19-.183-.004-.105.077-.194.182-.198.634-.025 1.27-.045 1.907-.06.12.006.192.082.194.187.002.105-.08.193-.186.195-.634.014-1.267.034-1.9.059h-.007zm5.71-.081h-.002c-.634-.007-1.268-.008-1.9-.005h-.002c-.104 0-.19-.084-.19-.19 0-.104.084-.19.19-.19.634-.005 1.27-.003 1.906.003.105.002.19.088.188.193-.001.105-.086.189-.19.189z"/>
        <path fill="url(#prefix__F)" d="M289.238 212.54s-.93 1.121-1.163 6.204c-.234 5.083-.117 24.952 3.39 21.949 3.506-3.004 8.415-18.83 8.532-22.989.117-4.158-3.245-6.704-3.245-6.704l-7.514 1.54z"/>
        <path fill="url(#prefix__G)" d="M269.418 160.204s-2.41 4.77-.947 10.577c2.208 8.763 20.507 43.178 20.633 45.955.126 2.778.944 13.193 3.649 9.469 3.203-4.41 4.025-9.027 2.516-17.044-5.732-30.438-14.217-32.446-11.574-38.632 2.642-6.187 7.674-15.529 7.674-15.529l-21.951 5.204z"/>
        <path fill="url(#prefix__H)" d="M256.77 130s-16.514 3.455-17.377 16.302c-.993 14.812-1.234 48.24-2.86 50.156C234.907 198.375 233 201 233 201s7.445-.519 9.085-2.076c1.64-1.557 3.975-3.828 3.975-3.828s-2.019.551-.978-5.386c1.041-5.937 3.216-28.544 7.021-41.007 1.46-4.78 20.897-9.214 20.897-9.214L256.77 130z"/>
        <path fill="url(#prefix__I)" d="M259.69 71.844s-14.127-6.678-16.377-9.096c-2.25-2.42-4.188-6.366-6.938-5.666-2.75.7-4.25 3.183-8.062 1.846-3.813-1.337-7.625-2.61-5.875-.955 1.75 1.655 8.062 4.01 8.687 5.665.625 1.656 1.75 4.393 5.25 4.584 3.5.19 29.25 18.778 29.25 18.778L268 77.384l-8.31-5.54z"/>
        <path fill="url(#prefix__J)" d="M265.495 120s-17.04 8.035-16.482 10.99c1.767 9.333 4.546 20.605 7.15 21.004 1.506.23 18.093-6.292 27.802-14.8 9.709-8.508-18.47-17.194-18.47-17.194z"/>
        <path fill="url(#prefix__K)" d="M278.25 135.128s-2.259 8.614-6.934 14.315c-4.674 5.7-7.959 7.474-2.4 9.754 5.559 2.28 24.51 9.374 25.268 5.827.758-3.547 2.148-10.806 5.685-14.46 3.537-3.655 6.064-5.809 4.801-11.256s-26.42-4.18-26.42-4.18z"/>
        <path fill="url(#prefix__L)" d="M286 77.297s-5.909.353-10.22.144c-2.762-.135-8.439-2.441-8.439-2.441L265 87.48s5.852 3.925 12.505 4.504c6.653.58 8.495-14.687 8.495-14.687z"/>
        <path fill="url(#prefix__M)" d="M297.33 77.715s1.59 1.724 4.55 1.852c2.959.128 6.66-1.149 6.054 3.83-.606 4.978-2.847 28.85-3.593 33.7-.747 4.85 4.854 22.722 2.49 24.381-2.366 1.66-20.041 4.468-30.746-7.531-10.704-12-17.053-17.871-12.696-21.19 4.356-3.32 7.717-7.404 9.958-12.127 2.24-4.724 5.165-18.287 7.219-20.489 2.054-2.201 5.539-2.01 7.126-3.638 1.587-1.627 9.639 1.212 9.639 1.212z"/>
        <path fill="url(#prefix__N)" d="M287.577 74.639s.371 1.048-.759 4.548-3.453 9.875 0 9.813c3.454-.063 10.926-7.125 11.617-9.75.69-2.625-.565-5.812 0-7.688C299 69.688 299 67 299 67l-11.423 7.639z"/>
        <path fill="url(#prefix__O)" d="M282.689 54.81s-3.55 5.695-3.676 13.543c-.127 7.848.634 9.747 4.817 8.101 4.183-1.646 14.451-5.949 17.494-9.62 3.042-3.67 1.014-8.733 1.014-8.733L294.352 50l-11.663 4.81z"/>
        <path fill="url(#prefix__P)" d="M286.784 44.22c-.059-.252-.395-.302-.516-.074-1.395 2.638-5.618 11.246-1.53 11.669 4.83.5 9.471-2.249 10.161 0 .69 2.248-1.94 5.051-1.098 7.308.753 2.014 2.478 2.373 1.945 1.062-.533-1.312 1.192-3.732 2.886-3.17 1.693.562 2.587 3.232 1.223 4.45-1.365 1.218-4.438 2.854-3.717 6.043.847 3.748 2.249 6.382 3.143 5.211.893-1.171 1.232-3.665 3.725-5.07 2.494-1.406 6.289-4.248 6.822-8.901.67-5.842-.513-11.121-5.395-14.241-3.591-2.296-6.63-2.966-10.037-2.124-3.337.824-5.645 1.187-6.712-.25-.532-.718-.783-1.405-.9-1.913z"/>
        <path fill="url(#prefix__Q)" d="M273 85.84c0 .063-.138.113-.38.16-.2-1.95-1.891-15.323-2.33-18.801-.061-.471-.441-.818-.88-.81l-9.026.234c-.141.004-.268.043-.384.109.141-.288.417-.49.746-.499l9.026-.233c.439-.008.819.338.88.81.468 3.696 2.348 18.575 2.348 19.03z"/>
        <path fill="url(#prefix__R)" d="M273 85.642c-1.503.292-6.967.346-8.97.358-.429 0-.795-.324-.873-.768l-3.143-18.289c-.037-.214 0-.425.09-.6.118-.067.247-.105.392-.11L269.72 66c.448-.008.836.339.9.81.447 3.485 2.176 16.88 2.379 18.832z"/>
        <path fill="url(#prefix__S)" d="M270.99 85.803c.241-.389.021-.543.286-.915.238-.333.921-.793.816-1.188-.818-3.08 2.243-1.499 1.878.98-.2 1.35-2.728 4.348-2.712 4.32H269l1.99-3.197z"/>
        <path fill="url(#prefix__T)" d="M311.105 82.054c-1.567-1.47-4.095-1.39-5.566.165-.862.912-1.793 2.277-2.63 4.32-2.445 5.969-3.909 11.08-3.909 11.08L311.936 103s2.306-12.303 2.043-14.954c-.287-2.9-1.612-4.807-2.874-5.992z"/>
        <path fill="url(#prefix__U)" d="M299.01 97.467s-3.93 12.896-11.976 8.193c-7.214-4.216-15.35-13.307-15.156-16.155.193-2.848.225-8.414-.604-9.194-1.31-1.233-1.371-1.457-5.285-1.236-3.403.193-7.916.032-6.822 3.423 1.094 3.391 3.057 7.998 4.795 9.822C265.7 94.143 278.612 118.992 288 119c14.67.013 21-17.124 21-17.124l-9.99-4.41z"/>
        <path fill="url(#prefix__V)" d="M231.995 200.533s-14.254 13.041-8.718 11.308C228.814 210.11 248 197.25 248 197.25l-2.832-2.25-13.173 5.533z"/>
        <path fill="url(#prefix__W)" d="M261.994 68.438c.042.274-.145.524-.418.558-.273.034-.528-.16-.57-.434-.042-.274.145-.524.418-.558.273-.034.528.16.57.434z"/>
        <path fill="url(#prefix__X)" d="M201.09 230.36s-.877 2.904 2.838 7.33c3.716 4.427 19.138 21.024 18.014 13.28-1.756-12.094-8.91-20.137-10.78-21.906-1.871-1.768-5.657-3.064-5.657-3.064l-4.415 4.36z"/>
        <path fill="url(#prefix__Y)" d="M238 200.034s-.08 4.096 5.786 6.752c6.802 3.08 21.425 11.09 20.134 7.143-2.328-7.12-8.583-13.847-13.229-16.792-4.646-2.945-6.195-3.634-9.099-2.82-2.904.815-3.592 5.717-3.592 5.717z"/>
        <path fill="url(#prefix__Z)" d="M177.672 172s9.532 1.845 17.715 20.26c8.183 18.413 20.05 41.683 19.6 45.18-.389 3.022-5.249 6.364-14.843-9.112-9.58-15.455-22.455-39.296-32.35-38.727-9.896.57-8.754-15.376-8.754-15.376L177.672 172z"/>
        <path fill="url(#prefix__aa)" d="M182.448 150s19.452 9.89 31.677 19.896c11.928 9.763 41.222 28.573 33.639 31.927-6.365 2.815-52.799-28.835-58.416-30.214-3.472-.853-18.348-5.983-18.348-5.983L182.448 150z"/>
        <path fill="url(#prefix__ab)" d="M118 180.006s6.686 8.774 21.914 10.396c14.155 1.507 18.951 15.825 22.751 10.361 3.8-5.463 12.012-17.331 16.192-33.533 2.85-11.048 6.227-29.107 2.49-28.197-3.207.782-22.039 9.294-32.045 7.285-10.006-2.01-31.302 33.688-31.302 33.688z"/>
        <path fill="url(#prefix__ac)" d="M98.725 154.926s4.171 1.74 6.39 11.637c2.22 9.896.305 16.748 6.24 15.225 5.935-1.522 22.117-10.023 34.14-24.36 7.979-9.514 11.232-15.1 5.871-16.495-5.36-1.395-13.273-2.41-18.378-9.008-5.105-6.598-17.856-25.064-27.873-26.704C95.1 103.58 85 111.624 85 111.624l8.934 32.608 4.79 10.694z"/>
        <path fill="url(#prefix__ad)" d="M106.286 107.19c.455.976 1.153 2.083 1.773 3.185.501.89.96 1.63 1.472 2.467 1.501 2.457 3.829 5.889 1.446 8.868-.731.914-1.75 1.532-2.854 1.845l-.327.094c-1.335.38-2.743.472-4.097.175-1.479-.324-2.524-1.017-3.183-2.527L99 116.027l-3-11.567 7.653-1.46 2.633 4.19z"/>
        <path fill="url(#prefix__ae)" d="M167.374 103L171 113.68s-26.3 14.332-35.992 14.32c-9.958-.012-20.537-9.658-20.537-9.658L106 104.414s8.033 2.365 15.174 5.65c7.14 3.285 9.69 7.49 24.354 1.84 14.664-5.651 21.846-8.904 21.846-8.904z"/>
        <path fill="url(#prefix__af)" d="M106.641 83.633s3.197 5.56 4.438 9.141c1.242 3.58 3.075 10.958.94 12.831-1.397 1.225-8.295 2.215-14.13.393C92.056 104.177 91 91.863 91 91.612 91 91.361 103.724 82 103.724 82l2.917 1.633z"/>
        <path fill="url(#prefix__ag)" d="M131 92.736c-.166-.116-.37-.184-.594-.172l-8.959.378c-.469.02-.855.375-.904.84l-2.16 19.91c-.01.11-.003.21.02.308-.273-.188-.436-.514-.398-.87l2.16-19.91c.05-.465.435-.821.904-.84l8.96-.379c.472-.022.873.304.971.735z"/>
        <path fill="url(#prefix__ah)" d="M130.994 92.501l-2.56 20.66c-.057.48-.474.839-.968.839h-8.877c-.214 0-.408-.065-.564-.176-.024-.099-.031-.202-.02-.312l2.22-20.27c.051-.473.448-.836.93-.855l9.212-.386c.23-.011.44.057.61.176.025.103.028.214.017.324z"/>
        <path fill="url(#prefix__ai)" d="M80.116 120s-5.305 7.003.884 15.631c6.19 8.628 20.464 28.761 30.821 22.008C122.18 150.887 129 124.127 129 124.127l-10.99-2.876s-5.024 22.883-10.8 21.383c-6.569-1.707-10.628-16.975-15.545-19.508C86.748 120.594 80.116 120 80.116 120z"/>
        <path fill="url(#prefix__aj)" d="M127.775 123s.458-2.342 1.079-4.232c.62-1.89 2.235-11.22 0-12.196-2.235-.976-8.941-.67-10.183.67-1.241 1.342-1.8 3.415-.496 4.696 1.303 1.28 2.013 3.532 1.296 2.454-.66-.99-1.809-2.668-3.097-2.881-1.173-.194-1.816 1.12-1.024 1.76.791.64 1.18 1.746 2.297 2.57 1.117.823 2.616 1.318 2.476 2.553-.14 1.235-.375 2.522-.375 2.522l8.027 2.084z"/>
        <path fill="url(#prefix__ak)" d="M169 105.476s3.457-3.244 5.621-3.674c2.164-.429 3.96 2.577 7.597 1.837 3.637-.74 10.175-3.792 8.518-2.17-1.658 1.62-8.748 5.293-10.175 7.154-1.427 1.86-3.177 4.102-5.664 4.292-2.486.191-3.385 0-3.385 0L169 105.476z"/>
        <path fill="url(#prefix__al)" d="M107 84.08s-10.598 3.16-9.133 11.412c1.572 8.86 3.196 24.284-1.226 29.933-5.125 6.546-15.284 5.716-17.451-.257-4.194-11.556 4.162-16.05 2.682-23.85-1.674-8.824-1.764-15.306 3.052-20.32 4.933-5.136 11.346-4.558 15.663-2.504C104.903 80.55 107 84.08 107 84.08z"/>
        <path fill="url(#prefix__am)" d="M123 94.5c0 .276-.224.5-.5.5s-.5-.224-.5-.5.224-.5.5-.5.5.224.5.5z"/>
    </g>
</svg>
