<svg xmlns="http://www.w3.org/2000/svg" width="20" height="20" viewBox="0 0 20 20">
    <g fill="#FFF">
        <path d="M3.755 20c-.294 0-.586-.08-.847-.24-.479-.294-.764-.802-.764-1.36v-2.344C.458 13.936-.271 11.29.09 8.575.67 4.218 4.28.647 8.672.085c3.094-.397 6.132.61 8.337 2.759 2.205 2.15 3.272 5.142 2.928 8.212-.5 4.445-4.118 8.102-8.604 8.696-1.788.235-3.597-.01-5.256-.715l-1.6.793c-.23.113-.476.17-.722.17zm5.1-18.51c-3.762.483-6.852 3.54-7.349 7.27-.32 2.407.355 4.748 1.901 6.591.107.127.165.288.165.453V18.4c0 .084.048.13.087.155.04.024.104.045.18.008l1.902-.943c.195-.097.425-.1.623-.008 1.497.697 3.15.952 4.78.736 3.845-.508 6.945-3.64 7.373-7.448.295-2.634-.62-5.202-2.51-7.044-1.89-1.843-4.497-2.705-7.152-2.364zM8.799.83h.022-.022z"/>
        <path d="M5.325 11.944l3.25-4.677c.135-.24.448-.305.666-.14l2.177 1.651c.147.112.347.122.505.027l2.651-1.895c.39-.236.842.188.639.598L12.589 12.1c-.119.238-.413.325-.64.188l-2.906-1.764c-.133-.08-.297-.087-.436-.017l-2.685 2.074c-.402.203-.82-.244-.597-.637z"/>
    </g>
</svg>
